<svg id="Layer_1" data-name="Layer 1" xmlns="http://www.w3.org/2000/svg" viewBox="0 0 423.8 423.75"><defs><style>.cls-1{fill:#ce1717;}</style></defs><title>exclamation-red</title><g id="_9sJlf1.tif" data-name="9sJlf1.tif"><path class="cls-1" d="M467.9,256c-.28,117.89-95.43,212.18-212.36,211.88-118.32-.29-211.64-96.31-211.44-212a211.71,211.71,0,0,1,213-211.73C374.33,44.77,467.85,139.91,467.9,256ZM256,146.47c-8.75,0-17.5-.05-26.25,0-7.19.05-11.5,4.54-11.23,11.74.25,6.75.67,13.48,1,20.22.94,16.46,1.91,32.92,2.82,49.39.76,13.8,1.44,27.61,2.19,41.42a33.68,33.68,0,0,0,.69,6.44c1.3,5.13,5.4,7.86,11.6,7.88q19.13.06,38.25,0a19.21,19.21,0,0,0,4.2-.5,10.2,10.2,0,0,0,7.7-8.84c.39-5.4.69-10.8,1-16.21.73-13.64,1.4-27.28,2.16-40.92,1.08-19.54,2.26-39.08,3.29-58.62.4-7.5-4-12-11.46-12C273.33,146.45,264.66,146.47,256,146.47Zm0,152.15a39.64,39.64,0,0,0-39.54,39.93c.26,21.39,18.25,39.16,39.49,39a39.75,39.75,0,0,0,39.53-40C295.24,316.17,277.28,298.45,256,298.62Z" transform="translate(-44.1 -44.12)"/></g></svg>