<?xml version="1.0" encoding="UTF-8"?>
<svg width="20px" height="20px" viewBox="0 0 20 20" version="1.1" xmlns="http://www.w3.org/2000/svg" xmlns:xlink="http://www.w3.org/1999/xlink">
    <!-- Generator: Sketch 63.1 (92452) - https://sketch.com -->
    <title>Facebook-Icon</title>
    <desc>Created with Sketch.</desc>
    <g id="Landing-Page-(Hi-Fi-2)" stroke="none" stroke-width="1" fill="none" fill-rule="evenodd">
        <g id="Desktop" transform="translate(-876.000000, -2329.000000)">
            <rect id="Rectangle" fill="#FFFFFF" x="0" y="0" width="1024" height="2386"></rect>
            <g id="Footer" transform="translate(0.000000, 2292.000000)">
                <g fill="#000000" id="Rectangle">
                    <rect x="0" y="0" width="1024" height="94"></rect>
                </g>
                <g id="Facebook-Icon" transform="translate(876.000000, 37.000000)" fill="#FFFFFF" fill-rule="nonzero">
                    <path d="M11.5674787,19.9887149 C15.7045145,19.4176196 19.9952397,15.6572819 20,10.0372937 C20,7.18626281 18.9496751,4.73670851 16.8901678,2.77446608 C14.6878516,0.675092377 12.0394279,-0.22361329 9.02140131,0.0468875409 C3.84084105,0.51162917 -0.590992928,5.21957472 0.0645675981,11.2075261 C0.35868578,13.8961197 1.59058194,16.1066347 3.65552959,17.8349674 C5.04145527,18.9949407 6.63921404,19.7017993 8.42942471,20 L8.42942471,19.8905686 C8.42942471,17.6280736 8.42942471,15.3654647 8.42942471,13.1027418 C8.42942471,12.9809993 8.42942471,12.9806573 8.30701714,12.9806573 L5.99487421,12.9806573 C5.88164721,12.9806573 5.88028712,12.9786055 5.88028712,12.8664383 C5.88028712,11.9688725 5.88028712,11.0713068 5.88028712,10.173741 C5.88028712,10.0540504 5.88028712,10.0537084 6.0043948,10.0537084 L8.31653773,10.0537084 C8.42806463,10.0537084 8.42840465,10.0537084 8.42840465,9.94119921 C8.42840465,9.1861223 8.4243244,8.43104539 8.43146484,7.67596849 C8.43690517,7.05426114 8.55251232,6.45341416 8.80922819,5.88402872 C9.10357264,5.21246074 9.62226127,4.6656302 10.2753988,4.33830969 C10.8303131,4.05412993 11.4280701,3.93067759 12.0465683,3.91939248 C12.3774088,3.91357893 12.7096093,3.92588997 13.0394297,3.9535898 C13.481457,3.98949699 13.9234844,4.04797441 14.3655117,4.0941408 C14.4477968,4.10269013 14.4709182,4.14030719 14.4705782,4.22135484 C14.467858,4.97643175 14.4705782,5.73150866 14.4705782,6.48692754 C14.4705782,6.6062762 14.4705782,6.60730212 14.3536109,6.60730212 C13.9795878,6.60730212 13.6055647,6.60012068 13.2315416,6.61106383 C13.0225784,6.61485038 12.8144504,6.63866832 12.6099832,6.68219426 C12.2594215,6.76119008 11.9785641,6.95303706 11.7915526,7.27209809 C11.6249423,7.55661983 11.5739391,7.86918336 11.5712189,8.19132215 C11.5664586,8.77541244 11.5712189,9.35950273 11.5712189,9.94359302 C11.5712189,10.0543923 11.5712189,10.0547343 11.684786,10.0547343 L14.2349436,10.0547343 C14.2689457,10.0547343 14.306008,10.058496 14.3471505,10.0608898 C14.3427303,10.1077402 14.3413702,10.1443313 14.3355898,10.1805805 C14.2992076,10.4199617 14.2611252,10.659343 14.224743,10.8987243 C14.1247768,11.554287 14.0234505,12.2098497 13.9275646,12.8660963 C13.9143038,12.9580871 13.8813217,12.9861289 13.788156,12.985445 C13.0883927,12.9816833 12.3886295,12.9837351 11.6888662,12.985445 C11.572239,12.985445 11.571899,12.985445 11.571899,13.1041097 C11.571899,15.3693404 11.571899,17.6346851 11.571899,19.9001438 L11.5674787,19.9887149 Z" id="Path"></path>
                </g>
            </g>
        </g>
    </g>
</svg>