<?xml version="1.0" encoding="UTF-8"?>
<svg width="20px" height="20px" viewBox="0 0 20 20" version="1.1" xmlns="http://www.w3.org/2000/svg" xmlns:xlink="http://www.w3.org/1999/xlink">
    <!-- Generator: Sketch 63.1 (92452) - https://sketch.com -->
    <title>instagram</title>
    <desc>Created with Sketch.</desc>
    <g id="Landing-Page-(Hi-Fi-2)" stroke="none" stroke-width="1" fill="none" fill-rule="evenodd">
        <g id="Desktop" transform="translate(-914.000000, -2329.000000)">
            <rect id="Rectangle" fill="#FFFFFF" x="0" y="0" width="1024" height="2386"></rect>
            <g id="Footer" transform="translate(0.000000, 2292.000000)">
                <g fill="#000000" id="Rectangle">
                    <rect x="0" y="0" width="1024" height="94"></rect>
                </g>
                <g id="instagram" transform="translate(914.000000, 37.000000)" fill="#FFFFFF" fill-rule="nonzero">
                    <path d="M11.5384615,10 C11.5384615,10.849686 10.849686,11.5384615 10,11.5384615 C9.15031397,11.5384615 8.46153846,10.849686 8.46153846,10 C8.46153846,9.15031397 9.15031397,8.46153846 10,8.46153846 C10.849686,8.46153846 11.5384615,9.15031397 11.5384615,10 Z" id="Path"></path>
                    <path d="M14.3887406,6.67970267 C14.2985318,6.43525624 14.1546166,6.21399782 13.9676166,6.03238343 C13.7860022,5.84538341 13.5648933,5.70146822 13.3202973,5.6112594 C13.1219277,5.53421539 12.8239245,5.4425106 12.2750421,5.41752739 C11.6812797,5.39044979 11.5032557,5.38461538 10.0000748,5.38461538 C8.49674434,5.38461538 8.31872031,5.3903002 7.72510748,5.4173778 C7.17622507,5.4425106 6.87807226,5.53421539 6.67985226,5.6112594 C6.43525624,5.70146822 6.21399782,5.84538341 6.03253302,6.03238343 C5.845533,6.21399782 5.70161781,6.43510665 5.6112594,6.67970267 C5.53421539,6.87807226 5.4425106,7.17622507 5.41752739,7.72510748 C5.39044979,8.31872031 5.38461538,8.49674434 5.38461538,10.0000748 C5.38461538,11.5032557 5.39044979,11.6812797 5.41752739,12.2750421 C5.4425106,12.8239245 5.53421539,13.1219277 5.6112594,13.3202974 C5.70161781,13.5648934 5.84538341,13.7860022 6.03238343,13.9676166 C6.21399782,14.1546166 6.43510661,14.2985318 6.67970263,14.3887406 C6.87807226,14.4659342 7.17622507,14.557639 7.72510748,14.5826222 C8.31872031,14.6096998 8.49659475,14.6153846 9.9999252,14.6153846 C11.5034053,14.6153846 11.6814293,14.6096998 12.2748925,14.5826222 C12.8237749,14.557639 13.1219277,14.4659342 13.3202973,14.3887406 C13.8112846,14.199347 14.199347,13.8112846 14.3887406,13.3202974 C14.4657846,13.1219277 14.5574894,12.8239245 14.5826222,12.2750421 C14.6096998,11.6812797 14.6153846,11.5032557 14.6153846,10.0000748 C14.6153846,8.49674434 14.6096998,8.31872031 14.5826222,7.72510748 C14.557639,7.17622507 14.4659342,6.87807226 14.3887406,6.67970267 L14.3887406,6.67970267 Z M10.0000748,12.8907957 C8.40339393,12.8907957 7.10905467,11.5966061 7.10905467,9.9999252 C7.10905467,8.40324434 8.40339393,7.10905467 10.0000748,7.10905467 C11.5966061,7.10905467 12.8909453,8.40324434 12.8909453,9.9999252 C12.8909453,11.5966061 11.5966061,12.8907957 10.0000748,12.8907957 Z M13.0052397,7.6703539 C12.6321373,7.6703539 12.3296461,7.3678627 12.3296461,6.99476027 C12.3296461,6.62165783 12.6321373,6.31916664 13.0052397,6.31916664 C13.3783422,6.31916664 13.6808334,6.62165783 13.6808334,6.99476027 C13.6806838,7.3678627 13.3783422,7.6703539 13.0052397,7.6703539 Z" id="Shape"></path>
                    <path d="M10,0 C4.47799684,0 0,4.47799684 0,10 C0,15.5220032 4.47799684,20 10,20 C15.5220032,20 20,15.5220032 20,10 C20,4.47799684 15.5220032,0 10,0 Z M15.70755,12.3674011 C15.6797791,12.9786682 15.5825805,13.3959961 15.4406738,13.7612915 C15.1423645,14.5326233 14.5326233,15.1423645 13.7612915,15.4406738 C13.3961487,15.5825805 12.9786682,15.6796265 12.3675537,15.70755 C11.7552185,15.7354736 11.5596008,15.7421875 10.0001526,15.7421875 C8.44055176,15.7421875 8.24508668,15.7354736 7.63259887,15.70755 C7.02148437,15.6796265 6.60400391,15.5825805 6.23886109,15.4406738 C5.85556031,15.2964783 5.50857543,15.0704956 5.2217102,14.7782898 C4.92965699,14.4915771 4.7036743,14.1444397 4.55947875,13.7612915 C4.41757203,13.3961487 4.32037352,12.9786682 4.29260254,12.3675537 C4.26437379,11.7550659 4.2578125,11.5594482 4.2578125,10 C4.2578125,8.44055176 4.26437379,8.24493406 4.29244996,7.63259887 C4.32022094,7.0213318 4.41726684,6.60400391 4.55917359,6.23870852 C4.70336914,5.85556031 4.92950437,5.50842285 5.2217102,5.2217102 C5.50842285,4.92950438 5.85556031,4.70352172 6.23870852,4.55932617 C6.60400391,4.41741945 7.0213318,4.32037352 7.63259887,4.29244996 C8.24493406,4.26452637 8.44055176,4.2578125 10,4.2578125 C11.5594482,4.2578125 11.7550659,4.26452637 12.3674011,4.29260254 C12.9786682,4.32037352 13.3959961,4.41741945 13.7612915,4.55917359 C14.1444397,4.70336914 14.4915771,4.92950438 14.7784424,5.2217102 C15.0704956,5.50857543 15.2966309,5.85556031 15.4406738,6.23870852 C15.5827332,6.60400391 15.6797791,7.0213318 15.7077027,7.63259887 C15.7356262,8.24493406 15.7421875,8.44055176 15.7421875,10 C15.7421875,11.5594482 15.7356262,11.7550659 15.70755,12.3674011 L15.70755,12.3674011 Z" id="Shape"></path>
                </g>
            </g>
        </g>
    </g>
</svg>