<?xml version="1.0" encoding="UTF-8"?>
<svg width="15px" height="13px" viewBox="0 0 15 13" version="1.1" xmlns="http://www.w3.org/2000/svg" xmlns:xlink="http://www.w3.org/1999/xlink">
    <!-- Generator: Sketch 63.1 (92452) - https://sketch.com -->
    <title>phone-outline</title>
    <desc>Created with Sketch.</desc>
    <g id="Locations-(WireFrame)" stroke="none" stroke-width="1" fill="none" fill-rule="evenodd">
        <g id="Desktop-Copy" transform="translate(-413.000000, -530.000000)" fill="#000000" fill-rule="nonzero">
            <g id="Group-7-Copy-3" transform="translate(43.000000, 449.000000)">
                <g id="Hanalei-Copy-7" transform="translate(370.000000, 1.000000)">
                    <g id="Group-5">
                        <g id="Group-2" transform="translate(0.000000, 36.000000)">
                            <g id="Group-3" transform="translate(0.000000, 40.000000)">
                                <g id="phone-outline" transform="translate(7.500000, 10.500000) scale(-1, 1) translate(-7.500000, -10.500000) translate(0.000000, 4.000000)">
                                    <path d="M14.4134995,1.98528075 C14.4017915,3.23294139 14.1283878,4.46837438 13.6066132,5.63136787 C12.0795262,9.0625412 8.62925591,11.5769607 4.46475309,12.2935913 C3.67745125,12.4258698 2.87773359,12.4949378 2.07577409,12.4999588 C1.69561565,12.5034835 1.317358,12.2804216 1.22485278,11.9316989 C1.01639924,11.1486503 0.803510513,10.3664248 0.601076144,9.58227875 C0.503818943,9.205296 0.705302916,8.88291265 1.11492364,8.73173543 C1.78632568,8.4818769 2.45804452,8.23275002 3.13008017,7.98435479 C3.44307728,7.86829679 3.75258961,7.74510519 4.07033871,7.64002194 C4.39822536,7.53027441 4.70108492,7.59749477 4.94248553,7.81040497 C5.12876317,7.97502625 5.28716252,8.16214578 5.45633302,8.34048551 C5.68865207,8.5839421 5.91875352,8.8282218 6.14663739,9.0733246 C6.18592043,9.11585177 6.21506591,9.12024167 6.27050568,9.09609722 C8.10071639,8.29669365 9.58541083,7.00854052 10.5051539,5.42202447 C10.5336658,5.37291245 10.5105395,5.35288353 10.473474,5.32681849 C10.0207687,5.00855067 9.57028094,4.6880879 9.11599161,4.37146629 C8.88726294,4.21205802 8.76054346,4.0090251 8.76466185,3.75605705 C8.76892296,3.65580634 8.79493068,3.55714563 8.84132713,3.46522611 C9.24873026,2.63196804 9.66500375,1.80172801 10.0724069,0.968469936 C10.2418942,0.622765234 10.6046287,0.480916559 10.8900643,0.502042958 C11.0750748,0.516035767 11.2578676,0.55911167 11.4400269,0.595328353 C12.2104813,0.748974887 12.9807245,0.903810353 13.7507566,1.05983475 C14.1058879,1.13144501 14.337151,1.31829017 14.4093811,1.62887566 C14.4375762,1.74438493 14.4134995,1.86675342 14.4134995,1.98528075 Z M1.43805831,9.41628562 C1.44439428,9.44728929 1.44819587,9.47115938 1.45453184,9.49612694 C1.64820145,10.2257651 1.84176545,10.9553117 2.03522386,11.6847669 C2.0497966,11.7396407 2.07260611,11.7670776 2.14420261,11.7621389 C2.48095963,11.7448537 2.81930064,11.7407382 3.15542406,11.7149475 C3.74651884,11.6692009 4.33219023,11.5809151 4.90637048,11.4510047 C6.5090551,11.0899354 7.96221074,10.4679413 9.25506623,9.5677372 C10.1296256,8.96049394 10.8979309,8.2466637 11.5360169,7.44851251 C12.8486744,5.80603746 13.5592177,3.85902999 13.5749333,1.86154041 C13.5749333,1.80282549 13.5562422,1.77922977 13.4881305,1.76551133 C12.6479803,1.60089004 11.8083582,1.43315924 10.969264,1.26231893 C10.8903811,1.24640554 10.8561669,1.26012398 10.8235366,1.3267956 C10.4406326,2.11094166 10.0550886,2.89435607 9.66690455,3.67703884 C9.61906794,3.77443976 9.61970154,3.77389103 9.71632514,3.84166012 C10.3256346,4.27205333 10.9348385,4.70272091 11.5439368,5.13366285 C11.5781511,5.15780731 11.5879719,5.17591565 11.5670631,5.21268107 C11.2318901,5.80422022 10.8720068,6.38258968 10.4395766,6.92638866 C9.91748286,7.58531369 9.28717282,8.17473869 8.56856345,8.67603857 C7.99135622,9.07908635 7.36472839,9.41683435 6.70832148,9.71397578 C6.46311929,9.82509515 6.2160163,9.93347083 5.96637893,10.0432183 C5.93469906,10.0113916 5.90998876,9.9856009 5.88527846,9.96090771 C5.39086129,9.43704619 4.89686652,8.91291031 4.40329414,8.38850005 C4.36179351,8.34405231 4.32948005,8.33993677 4.27087229,8.36106317 C3.50400823,8.64805295 2.73640498,8.93367088 1.96806253,9.21791697 C1.79160566,9.28376548 1.61546558,9.34988837 1.43805831,9.41628562 Z" id="Shape"></path>
                                </g>
                            </g>
                        </g>
                    </g>
                </g>
            </g>
        </g>
    </g>
</svg>