<svg id="Layer_1" data-name="Layer 1" xmlns="http://www.w3.org/2000/svg" viewBox="0 0 684.06 608.02"><defs><style>.cls-1{fill:#1b1b1b;}</style></defs><title>SP-cart-icon</title><path class="cls-1" d="M368.61,576.05c1.23,6.71,2.35,12.92,3.51,19.13,3.35,17.93,6.77,35.84,10,53.79.43,2.35,1.27,3.08,3.7,3.07q95.61-.1,191.24,0,78,0,156,0c2.74,0,9.6-.53,15.23,3.66,3.39,2.53,4.11,5.07,8.88,11.64a135.72,135.72,0,0,0,9.37,11.27c7.33,8.63,14,21.72,16.44,32a75.93,75.93,0,0,1-85.27,92.6c-31.86-4.72-57.9-29.79-63.45-61.1a75.26,75.26,0,0,1,7.6-49.67c.23-.45.45-.89.65-1.35a3.08,3.08,0,0,0,0-.74H471.19c.38.86.66,1.58,1,2.28,13.7,27.73,11.91,54.56-5.67,79.87C455.05,789,438.82,799,419,802.7a76,76,0,0,1-80.77-38.19c-14.7-26.47-11.7-60.71,7.57-84a9.09,9.09,0,0,0,2.09-8.37c-3.61-18.55-7.07-37.14-10.55-55.72q-10.67-56.83-21.31-113.68-14.19-75.64-28.4-151.28Q277,294.83,266.47,238.2c-.87-4.65-.24-4.14-5-4.14q-43.62,0-87.24,0C163.66,234,158,228.4,158,217.89v-5.75c0-10.54,5.66-16.14,16.26-16.14h64.5c11.33,0,22.66,0,34,0,15.23,0,26.47,9.51,29.23,24.54,3,16.3,6.11,32.59,9.07,48.9.39,2.16,1.42,2.57,3.38,2.57q73.88-.06,147.75,0h190q80.11,0,160.24,0c11.6,0,20.39,4.91,26.18,14.93,3.67,6.35,4.16,13.23,2.68,20.34q-12,57.36-23.94,114.72-13.63,65.43-27.23,130.88C787.27,566.4,775.94,576,762,576q-55,.11-110,0H368.61Zm433-265.82H318.91c.13,1.08.19,2,.36,2.85q7.16,38.3,14.33,76.59Q347.16,462,360.75,534.32c.68,3.65.7,3.65,4.43,3.65H536.91q107.1,0,214.22.06c2.41,0,3.31-.78,3.77-3.09,2.44-12.17,5-24.31,7.56-36.46q18.45-88.53,36.89-177C800.1,317.79,800.79,314.15,801.57,310.23ZM405,766c20.82,0,37.89-17.12,38-38.15.09-20.47-17.09-37.64-37.81-37.77S367,707.21,367,727.79A38.25,38.25,0,0,0,405,766Zm304.14,0A38.24,38.24,0,0,0,747,727.69c0-20.52-17.28-37.62-38-37.63s-38.14,17.34-38,37.87C671.22,749,688.32,766.07,709.13,766Z" transform="translate(-157.97 -195.99)"/></svg>