<svg id="Layer_1" data-name="Layer 1" xmlns="http://www.w3.org/2000/svg" viewBox="0 0 411.13 467.72"><defs><style>.cls-1{fill:none;stroke:#fff;stroke-miterlimit:10;stroke-width:15px;}</style></defs><title>shopping-bag-white-solid</title><path class="cls-1" d="M337.18,154.86V128c0-63.52-51.71-115.63-115.22-114.51A113.32,113.32,0,0,0,110.82,126.63v28.23a.06.06,0,0,1,0,0l0,0H26a.07.07,0,0,0-.07.07V395.36a70.81,70.81,0,0,0,70.81,70.81H351.26a70.81,70.81,0,0,0,70.81-70.81V155a.07.07,0,0,0-.07-.07H337.24A.06.06,0,0,1,337.18,154.86ZM167.41,126.63A56.66,56.66,0,0,1,226.73,70.1c30.3,1.43,53.86,27,53.86,57.36v27.46H167.41Zm143.2,106A21.22,21.22,0,1,1,330,213.23,21.22,21.22,0,0,1,310.61,232.66Zm-169.77,0a21.22,21.22,0,1,1,19.43-19.43A21.22,21.22,0,0,1,140.84,232.66Z" transform="translate(-18.43 -5.95)"/></svg>