<?xml version="1.0" encoding="utf-8"?>
<!-- Generator: Adobe Illustrator 23.0.6, SVG Export Plug-In . SVG Version: 6.00 Build 0)  -->
<svg version="1.1" id="Layer_1" xmlns="http://www.w3.org/2000/svg" xmlns:xlink="http://www.w3.org/1999/xlink" x="0px" y="0px"
	 viewBox="0 0 200 100" style="enable-background:new 0 0 200 100;" xml:space="preserve">
<title>Sand People Logo (For web white</title>
<path d="M54.5,44.8c0.8-3.5-0.1-7.8-2.9-10.2c-1.5-1.3-3.3-1.9-4.3-2.1c-1.5-0.3-3-0.5-4.5-0.5c-2.5-0.1-5-0.2-7.6-0.3
	c-0.9,0-1.6-0.3-1.6-1.4c0-1.1,0.7-1.4,1.6-1.5c4.3-0.7,8.5-0.1,12.7,0.3l5.4,0.6c0-2.6,0-5,0-7.5c0-0.9-0.4-1.3-1.3-1.5
	c-6.2-1-12.4-1.5-18.7-1.3c-3.2,0-6.4,0.6-9.4,1.8c-3.4,1.2-6,4.1-6.8,7.6C15.7,35.3,18.8,40,25.3,41c2.2,0.2,4.3,0.4,6.5,0.4
	c1.4,0,2.8-0.1,4.2,0c0.9,0,1.6,0.4,1.6,1.5s-0.8,1.4-1.7,1.4c-3.7,0-7.3,0-11-0.1c-2.2-0.1-4.5-0.2-6.8-0.4c0,2.7,0.1,5.3,0,7.9
	c0,1.2,0.6,1.5,1.6,1.6c6.5,0.6,13,1.6,19.5,1c5.9-0.5,8.9-1.2,11.3-3.4C51.3,50.3,53.7,48.2,54.5,44.8z"/>
</svg>
