<svg id="Layer_1" data-name="Layer 1" xmlns="http://www.w3.org/2000/svg" viewBox="0 0 166.37 61.08"><defs><style>.cls-1{fill:#0a0a0a;}</style></defs><title>Sand People Logo (For Web</title><g id="yV8aKl.tif"><path class="cls-1" d="M78.31,54.74l-5.37-.64c-4.24-.48-8.47-1-12.74-.34-.88.12-1.62.36-1.61,1.49s.79,1.39,1.65,1.43c2.53.12,5.06.14,7.58.28a33.63,33.63,0,0,1,4.48.55c4.09.79,6.43,3.55,6.92,8A3.74,3.74,0,0,0,79.64,67c.69-2.15,1.39-4.29,2-6.44,1.38-4.49,2.72-9,4.11-13.47.49-1.58.69-1.68,2.34-1.68,7.48,0,15,0,22.43,0a1.29,1.29,0,0,1,1.49,1.1q3.06,10.14,6.19,20.26c.93,3,1.89,6,2.83,9a1.39,1.39,0,0,0,.53.77v-31c.6,0,1.08-.1,1.56-.1,4.15,0,8.3.07,12.45,0a3.21,3.21,0,0,1,3,1.68c2.39,3.66,4.85,7.28,7.29,10.9a2.92,2.92,0,0,0,1.22,1V45.46h14.76c0,.38.07.74.07,1.1q0,15.4,0,30.81c0,.94-.18,1.31-1.24,1.3-3.64-.06-7.28,0-10.92,0a3,3,0,0,1-2.67-1.35c-2.05-2.85-4.18-5.63-6.28-8.45L137,63.57l-.27.11V78.46c-.67.07-1.21.17-1.75.17l-27.64.05c-1.67,0-2-.28-2.26-2-.37-2.12-.55-2.3-2.68-2.34-2.49,0-5,0-7.47,0a1.45,1.45,0,0,0-1.68,1.25c-.78,3-.82,3-4,3.08-4,0-8.08,0-12.12,0a7.58,7.58,0,0,1-.84-.09l.42-3a8.65,8.65,0,0,0-1,.49c-3.41,2.37-7.31,3-11.34,3.36-6.56.59-13-.37-19.51-1-1-.08-1.59-.46-1.56-1.62.06-2.6,0-5.19,0-7.92,2.31.13,4.55.31,6.8.36,3.66.09,7.32.11,11,.11.88,0,1.69-.27,1.69-1.39s-.74-1.46-1.63-1.5c-1.39-.07-2.8,0-4.19,0A64,64,0,0,1,50.27,66c-6.5-1-9.56-5.68-8.1-12.09a10.37,10.37,0,0,1,6.77-7.59,27,27,0,0,1,9.39-1.8A94.57,94.57,0,0,1,77,45.79c.93.15,1.3.55,1.28,1.49C78.29,49.72,78.31,52.17,78.31,54.74Zm24.27,10.5L99.06,53.08l-.32,0c-1.11,4-2.21,8-3.34,12.13Z" transform="translate(-41.81 -44.46)"/><path class="cls-1" d="M165.15,78.58V45.38c.4,0,.8-.05,1.2-.05,8.64,0,17.28,0,25.93.11a23.11,23.11,0,0,1,6.23,1c5.5,1.66,8.3,5.58,9.36,11.19,1.61,8.57-3,17.13-10.92,19.79a26.09,26.09,0,0,1-7.76,1.25c-7.65.15-15.32,0-23,0C165.88,78.64,165.55,78.6,165.15,78.58ZM181,57c0,3.63,0,7.09,0,10.56,0,.81.56,1.12,1.27,1.11,1.28,0,2.56-.05,3.84-.13a4.83,4.83,0,0,0,4.75-3.66,11.54,11.54,0,0,0,.36-4.22c-.22-2.2-1.37-3.52-3.11-3.62C185.83,56.85,183.5,57,181,57Z" transform="translate(-41.81 -44.46)"/><path class="cls-1" d="M151.66,99.3H141.59v5.57H130.23V97.51l-.21-.05a6.41,6.41,0,0,0-.4.61,11.81,11.81,0,0,1-10,7,38.73,38.73,0,0,1-12.62-.16,20.26,20.26,0,0,1-4.13-1.45,9.8,9.8,0,0,1-5.29-6.3c-.18-.57-.36-.9-1-.89-4.3,0-8.6,0-12.91,0a4.71,4.71,0,0,0-.59.06v2.39h13.8v6.12H71.52V94.12L71.25,94c-.22.32-.44.64-.65,1a8.25,8.25,0,0,1-6.8,4.08c-3.27.19-6.55.27-9.93.41v5.34H42.62V86.64c2.1.22,4.25.62,6.39.63,4.15,0,8.3-.21,12.45-.29a39,39,0,0,1,16.36,2.76,54.67,54.67,0,0,0,9.09,3,33.18,33.18,0,0,0,8,.81c4.56-.08,9.11-.51,13.66-.79.22,0,.44,0,.7,0,.28,1.12.52,2.22.83,3.29a2.72,2.72,0,0,0,2.76,2.24,11.18,11.18,0,0,0,1.92,0,3.07,3.07,0,0,0,3-2.93c.18-1.07.28-2.15.42-3.28,11.89-.92,22.63,3.24,33.51,6.79ZM53.81,93.15c1.79-.15,3.43-.26,5.07-.42a2,2,0,0,0,1.9-2.11c.06-1.4-.61-2.47-1.83-2.55-1.67-.11-3.36,0-5.14,0Z" transform="translate(-41.81 -44.46)"/><path class="cls-1" d="M159.21,98.29V93.75L157,96.47a2.26,2.26,0,0,1-2.89.69c-3.84-1.4-7.73-2.65-11.6-4.19,1.09,0,2.17,0,3.26,0a2.58,2.58,0,0,0,2.53-3.41A2.33,2.33,0,0,0,146.15,88c-1.49-.1-3,0-4.62,0v5c-3-.78-5.94-1.51-8.84-2.27-4.18-1.1-8.44-1-12.7-1a5.35,5.35,0,0,1-3.88-1c-1.65-1.35-4.18-.69-5.65.94a3,3,0,0,1-1.8,1c-4.48.3-9,.51-13.44.69-2,.08-3.91,0-5.87,0a2.09,2.09,0,0,1-1.16-.44c2.53,0,5.07,0,7.61,0,1,0,1.39-.34,1.52-1.24a9.32,9.32,0,0,1,5.94-7.41,23.6,23.6,0,0,1,11.6-1.92,42.86,42.86,0,0,1,7.23,1.14c3.72,1,6.63,3,8.07,6.92V81.19a5.28,5.28,0,0,1,.68-.1c6.57,0,13.14,0,19.7,0,3.44,0,6.31,1,8.47,4V81.26h11.34V96.71h5.09C172.66,98.08,163.67,99.29,159.21,98.29Z" transform="translate(-41.81 -44.46)"/><path class="cls-1" d="M42.53,81.2c.64,0,1.2-.11,1.75-.11q9.63,0,19.25,0c3,0,5.49.9,7.23,3.44.1.15.17.33.26.49l.25-.15V81.26H96.88v7.19h-1.2c-3.85,0-7.7,0-11.55,0-.73,0-1.28.07-1.31,1-1.82-.63-3.57-1.16-5.27-1.83a41.09,41.09,0,0,0-16.77-2.43c-3.39.11-6.79.31-10.18.21a54.33,54.33,0,0,1-7.15-1,1.42,1.42,0,0,1-.88-.95A12.55,12.55,0,0,1,42.53,81.2Z" transform="translate(-41.81 -44.46)"/><path class="cls-1" d="M207.31,81.26v7.17H193.5v2.49h13.84v2.42c-8.53-1-16.83.37-25.16,2.36V81.26Z" transform="translate(-41.81 -44.46)"/><path class="cls-1" d="M207.3,98.78v6.13H182.11c0-2.26-.05-4.5,0-6.74,0-.31.71-.76,1.15-.85a116.6,116.6,0,0,1,20.67-2,21.65,21.65,0,0,1,3.46.48l-.05.5H193.44v2.53Z" transform="translate(-41.81 -44.46)"/><path class="cls-1" d="M159.34,104.88v-4c7.23,1.15,14-1,20.86-2.77v6.82Z" transform="translate(-41.81 -44.46)"/></g></svg>