<svg id="Layer_1" data-name="Layer 1" xmlns="http://www.w3.org/2000/svg" viewBox="0 0 1469.46 1061.83"><defs><style>.cls-1{fill:#231f20;}.cls-2{fill:#fff;}</style></defs><title>volkswagen-big</title><circle class="cls-1" cx="1192.31" cy="936.96" r="119.1"/><path class="cls-1" d="M1457.51,1527.4a120.93,120.93,0,1,1,120.92-120.92A121.06,121.06,0,0,1,1457.51,1527.4Zm0-238.2a117.28,117.28,0,1,0,117.28,117.28A117.41,117.41,0,0,0,1457.51,1289.2Z" transform="translate(-265.2 -469.51)"/><path class="cls-1" d="M675.18,1410.42c0,38-19.37,66-25.84,74.08-4.2,5.27-37.41,45.51-93.26,45-48.21-.43-78.61-30.9-84.28-36.8-9-9.49-35.27-39.85-34.82-82.3.65-62.16,58.29-119.11,119.1-119.11,42.37,0,72.58,24.31,78.78,29.78C639.74,1325.39,675.18,1357.7,675.18,1410.42Z" transform="translate(-265.2 -469.51)"/><path class="cls-1" d="M557.1,1531.35h-1c-46.52-.41-77.26-28.7-85.58-37.36-13.38-14.17-35.75-43.84-35.33-83.58.67-63.28,58.31-120.91,120.93-120.91,43.52,0,74.26,25.19,80,30.23,6.83,6,40.93,38.75,40.93,90.7,0,39.25-20.08,67.49-26.23,75.21S611.53,1531.35,557.1,1531.35Zm-1-238.21c-59.65,0-116.65,57-117.28,117.29-.41,38.47,21.33,67.28,34.32,81,8.06,8.4,37.88,35.84,83,36.24h1c52.77,0,84.89-36.9,90.82-44.34s25.44-34.88,25.44-72.94c0-50.39-33.08-82.11-39.7-88C628.11,1317.56,598.29,1293.14,556.08,1293.14Z" transform="translate(-265.2 -469.51)"/><circle class="cls-2" cx="290.88" cy="941.99" r="61.05"/><path class="cls-1" d="M556.08,1474.38A62.87,62.87,0,1,1,619,1411.51,62.94,62.94,0,0,1,556.08,1474.38Zm0-122.1a59.23,59.23,0,1,0,59.23,59.23A59.3,59.3,0,0,0,556.08,1352.28Z" transform="translate(-265.2 -469.51)"/><circle class="cls-2" cx="1192.31" cy="938.05" r="61.05"/><path class="cls-1" d="M1457.51,1470.44a62.87,62.87,0,1,1,62.87-62.87A62.94,62.94,0,0,1,1457.51,1470.44Zm0-122.1a59.23,59.23,0,1,0,59.23,59.23A59.3,59.3,0,0,0,1457.51,1348.34Z" transform="translate(-265.2 -469.51)"/><path class="cls-2" d="M412.05,1410.7c24.15-19,15.95-41.41,37.46-73.17,20.17-29.79,49.41-42.65,58.47-46.25,49.43-19.62,94.67-.13,101,2.69,9.18,4.12,50.08,22.46,64.46,61,5.76,15.41,5.78,30.07,19.17,41.81,11.59,10.17,25.83,11.69,32.61,12.26,163.1,13.79,361.23-4.57,361.23-4.57a1573.14,1573.14,0,0,1,200-2.29,36.37,36.37,0,0,0,16-6.85c11.54-8.93,8.24-18.83,19.44-36.58,9.52-15.1,15-23.22,24-27.44a40.26,40.26,0,0,1,4.82-1.88c18.58-6.17,37.24-1,39.77-.41,13,3.28,61,4.34,203.47-3.43a35.62,35.62,0,0,1,17.15,8c4.89,4.31,8.4,10.16,14.86,33.15,6.11,21.74,4.48,21.88,6.86,25.15,12.77,17.54,62.29,16.89,85.74-8,9.09-9.65,12.59-21.17,13.71-75.44,1.13-54.06-1.25-95.28-2.28-126.89-.73-22.34-1.3-55.38,0-96-774.45,5.22-1037,6.69-1110,6.85-65.2.15-130.31,9-195.47,6.86-27.52-.89-54.8,6-82.31,6.86-6.67.22-20.54.57-34.29,9.15A64.35,64.35,0,0,0,287.36,1137c-5.16,8.7-10,21.15-9.15,78.87.31,20.57.9,17.7,1.15,38.87.42,36.08-1.39,37.79,0,59.44,1.46,22.77,3.62,23.51,4.57,46.87a198.32,198.32,0,0,0,2.29,26.29c2.07,12.88,3.1,19.32,5.71,24,13.29,23.85,66.3,16.3,75.45,14.86C384.66,1423.45,398.68,1421.24,412.05,1410.7Z" transform="translate(-265.2 -469.51)"/><path class="cls-1" d="M338.93,1430.3c-18.91,0-40.47-3.52-48.59-18.1-2.77-5-3.82-11.53-5.92-24.59a188.41,188.41,0,0,1-2.24-24.65l-.07-1.87a211.93,211.93,0,0,0-2.26-24.77c-.8-5.62-1.63-11.43-2.31-22.06a234.66,234.66,0,0,1-.31-26.25c.22-7.42.5-16.65.31-33.29-.13-10.86-.34-15.29-.57-20-.21-4.36-.43-8.86-.58-18.88-.84-57.64,4-70.65,9.4-79.83A66.54,66.54,0,0,1,307,1113.69c14-8.72,28.14-9.19,34.94-9.41,12.12-.4,24.17-1.93,35.83-3.42,15.31-1.95,31.13-3.95,46.85-3.45,36.27,1.18,73.16-1.08,108.84-3.26,28.36-1.74,57.69-3.53,86.58-3.6,92.86-.21,466.3-2.51,1110-6.86h1.9l-.06,1.89c-1,32.21-1,64.48,0,95.91q.3,9.23.72,19.59c1.1,28.43,2.47,63.82,1.57,107.4-1.13,53.85-4.53,66.37-14.22,76.65-15.87,16.85-41.32,21.55-58.25,20.51-14-.89-25.06-5.51-30.28-12.68-1.44-2-1.67-3.1-2.37-6.47s-1.77-8.59-4.77-19.26c-6.25-22.22-9.59-28.11-14.32-32.28a33.33,33.33,0,0,0-16.06-7.53c-120.19,6.54-186.85,7.65-203.8,3.36-8.11-2.08-23.51-4.69-38.75.37a38.74,38.74,0,0,0-4.61,1.8c-8.62,4-14.17,12.38-23.24,26.76a80.56,80.56,0,0,0-8.66,19c-2.3,6.81-4.29,12.69-11.2,18a38.07,38.07,0,0,1-16.8,7.21l-.21,0h-.2a1579.13,1579.13,0,0,0-199.82,2.29c-2,.18-200.12,18.22-361.52,4.57-5.81-.49-21.23-1.8-33.66-12.71-10-8.8-12.85-19.07-15.81-30-1.12-4.1-2.28-8.34-3.86-12.59-9.24-24.74-31.2-45.47-63.51-60-8.33-3.74-52.26-21.43-99.53-2.65-11,4.37-38.67,17.55-57.64,45.57-9.45,14-13.1,26.18-16.33,37-4.13,13.81-7.69,25.72-21.51,36.61s-28.47,13.16-45.52,15.84A191.1,191.1,0,0,1,338.93,1430.3ZM419.54,1101c-13.82,0-27.79,1.78-41.34,3.5-11.74,1.49-23.88,3-35.91,3.44-6.74.22-20.23.66-33.39,8.86a62.74,62.74,0,0,0-20,21.11c-5.16,8.71-9.73,21.22-8.89,77.91.14,10,.36,14.43.57,18.76.23,4.73.44,9.19.57,20.12.19,16.71-.09,26-.31,33.44a230.44,230.44,0,0,0,.31,25.91c.67,10.49,1.49,16.23,2.28,21.78a214.16,214.16,0,0,1,2.29,25.13l.07,1.88A187.93,187.93,0,0,0,288,1387c2,12.65,3.06,19,5.51,23.4C306,1432.78,357,1426,367.09,1424.37c17.23-2.71,30.83-4.85,43.84-15.1h0c12.91-10.17,16.16-21,20.27-34.79,3.3-11,7-23.56,16.81-38,19.53-28.85,48-42.42,59.3-46.91,48.63-19.31,93.81-1.13,102.37,2.72,33.22,14.89,55.85,36.33,65.43,62,1.65,4.41,2.82,8.73,4,12.92,2.82,10.32,5.48,20.08,14.7,28.16,11.53,10.12,26.09,11.35,31.57,11.82,161.07,13.61,358.92-4.39,360.9-4.57a1579.85,1579.85,0,0,1,200.1-2.31,34.24,34.24,0,0,0,15-6.47c6.05-4.67,7.7-9.56,10-16.31a84.83,84.83,0,0,1,9-19.8c9.43-15,15.23-23.63,24.77-28.11a41.28,41.28,0,0,1,5-2c16.1-5.35,32.3-2.62,40.51-.51,16.64,4.2,84.91,3,203.2-3.41l.22,0,.22,0a37,37,0,0,1,18,8.42c5.26,4.65,8.91,10.92,15.41,34,3,10.8,4.16,16.25,4.83,19.51s.77,3.73,1.74,5.07c4.58,6.28,14.63,10.36,27.57,11.18,16.18,1,40.38-3.44,55.37-19.37,9-9.51,12.13-21.57,13.22-74.23.9-43.46-.46-78.79-1.56-107.18q-.4-10.38-.73-19.61c-1-30.9-1-62.59-.05-94.25C1085.6,1091.68,712.79,1094,620,1094.2c-28.78.06-58,1.85-86.35,3.59-35.77,2.19-72.75,4.44-109.18,3.27C422.83,1101,421.19,1101,419.54,1101Z" transform="translate(-265.2 -469.51)"/><path class="cls-2" d="M291.21,1107.8c6.93-32.09,36.11-75,36.11-75,18.42-27.08,10.29-21.3,33.32-56.93a731.91,731.91,0,0,1,48.6-66.65c-11.65,1.28-26.1,2-27.77-2.78-2.62-7.46,27.5-24.34,36.1-29.16C501.16,830.47,660.46,835.94,742.5,837c49.6.67-.17-1.22,177.73-2.77,130.37-1.14,134.52.06,322.15,0,164.53-.06,196-1,258.27,6.94a1205.88,1205.88,0,0,1,166.63,33.33c7.13,2.64,16.27,7.46,20.82,16.66a28.21,28.21,0,0,1,2.84,11.77c.78,17.5,9.77,37,21.13,73.53,5.34,17.18,12.44,42.1,19.35,74.09.12,1.47.31,3.7.52,6.42.5,6.31,1,11.38.87,12.13a215,215,0,0,1-6.5,24.69c-9,18.36-1067.26,28.78-1400.71,31.76-4.69.51-28,2.75-33.64-8.26C290.05,1113.59,290.81,1109.65,291.21,1107.8Z" transform="translate(-265.2 -469.51)"/><path class="cls-1" d="M316,1127.94c-9.59,0-21.56-1.75-25.69-9.79-2.27-4.42-1.28-9-.91-10.73h0c6.93-32.07,35.18-73.86,36.38-75.62,9-13.18,11.59-18.51,14.63-24.68,3.22-6.55,6.88-14,18.67-32.22a740.32,740.32,0,0,1,45.95-63.41c-15.88,1.41-23.75,0-25.31-4.43-2.16-6.16,9.23-15.83,36.93-31.35,79.15-44.34,224.14-42.08,310.77-40.72l15.07.22c20.15.28,24,.12,33.14-.26,13.65-.56,39.05-1.59,144.56-2.51,76.31-.67,110.12-.53,161.29-.32,37,.15,83,.33,160.87.32l46.45,0c126.12-.13,156.05-.16,212.05,7a1210.43,1210.43,0,0,1,166.88,33.38c10.82,4,18.16,9.91,22,17.61a30,30,0,0,1,3,12.35c.53,11.9,4.78,24.4,11.22,43.33,2.93,8.62,6.26,18.39,9.83,29.89,7.29,23.47,13.82,48.45,19.39,74.25.16,1.69.35,3.93.56,6.66l.44,5.35c.45,5.27.54,6.57.4,7.28a214.27,214.27,0,0,1-6.65,25.13c-1.89,3.84-6.31,12.83-580.31,22.67-220.26,3.78-504.51,7.27-822,10.11A90.36,90.36,0,0,1,316,1127.94Zm-23-19.75c-.32,1.51-1.08,5,.59,8.29,4.85,9.44,25.58,8,31.82,7.29,875.17-7.83,1385.19-19.13,1399.46-31,.23-.69,3.94-12.79,6.16-24,0-.48-.21-3.42-.45-6.26l-.44-5.37c-.21-2.73-.4-5-.53-6.41-5.51-25.47-12-50.34-19.27-73.71-3.56-11.45-6.87-21.2-9.8-29.79-6.31-18.54-10.86-31.93-11.41-44.2a26.77,26.77,0,0,0-2.65-11c-3.39-6.84-10.06-12.14-19.83-15.77A1206.73,1206.73,0,0,0,1500.42,843c-55.77-7.12-85.7-7.1-211.58-7l-46.46,0c-77.81,0-123.88-.16-160.88-.32-51.17-.21-85-.35-161.25.32-105.45.92-130.81,2-144.44,2.51-9.26.38-13.1.54-33.34.27l-15.08-.23c-86.26-1.34-230.64-3.6-308.93,40.26-34.69,19.43-35.77,25.56-35.27,27,.25.71,2.67,4.12,25.85,1.57l4.44-.49-2.83,3.45a735.19,735.19,0,0,0-48.48,66.49c-11.67,18.06-15.28,25.39-18.47,31.85-3.09,6.29-5.77,11.72-14.88,25.12-.29.42-29.05,43-35.83,74.34Z" transform="translate(-265.2 -469.51)"/><path class="cls-1" d="M739.4,1050c.24-13.75.13-24.88,0-32.19-.37-20.17,1.17-40.38,0-60.52-.6-10.26-1.6-21.08,5.17-26.93,3.89-3.38,8.76-3.72,10.86-3.84,14.93-.85,71.51-.93,148.25,0a12.86,12.86,0,0,1,7.67,2.56c3,2.39,4,5.88,4.47,8.31,3.35,16.67-3.31,55.37-.64,85.63,1,10.93,2.94,18.33-1.91,25.56-5.6,8.33-16.44,10.71-23.65,11.5-5.84,0-14.73.07-25.56,0-33.1-.21-30.22-1-40.89-.64-40.85,1.37-62,3.83-62,3.83-4.27.5-13.56,1.65-18.53-3.83C740,1056.47,739.45,1052.56,739.4,1050Z" transform="translate(-265.2 -469.51)"/><path class="cls-1" d="M754.91,1065.55c-4.65,0-10-.92-13.61-4.89-2.38-2.62-3.63-6.19-3.73-10.62V1050c.2-10.81.2-21.62,0-32.13-.15-8.36,0-16.85.2-25.06.24-11.62.49-23.63-.19-35.38l-.09-1.45c-.61-10.22-1.24-20.8,5.88-27,4.44-3.84,9.9-4.16,12-4.28,15.65-.89,75.28-.88,148.37,0a14.34,14.34,0,0,1,8.79,3c3.86,3.09,4.81,7.81,5.12,9.37,1.71,8.51.91,22.11,0,37.86-.91,15.41-1.93,32.87-.6,48,.16,1.85.36,3.6.54,5.25.92,8.35,1.64,14.94-2.76,21.49-4.61,6.86-13,11-25,12.3-6,0-14.93.08-25.77,0-17.92-.11-25.2-.39-30-.58-4-.15-6-.22-10.8-.06-40.28,1.35-61.63,3.8-61.84,3.83A56.55,56.55,0,0,1,754.91,1065.55ZM741.22,1050c.08,3.5,1,6.27,2.78,8.21,4.28,4.72,12.74,3.74,16.82,3.27.36,0,21.83-2.5,62.29-3.86,5-.16,7-.1,11.06.06,4.8.19,12,.47,29.9.58,10.83.07,19.7,0,25.54,0,10.65-1.17,18.17-4.78,22.15-10.7,3.65-5.44,3-11.15,2.16-19.06-.19-1.68-.38-3.45-.55-5.32-1.36-15.37-.32-33,.59-48.5s1.69-28.89.08-36.93c-.43-2.14-1.29-5.22-3.83-7.25a10.8,10.8,0,0,0-6.58-2.16c-73-.88-132.52-.88-148.1,0-1.71.1-6.27.36-9.77,3.39-5.76,5-5.19,14.66-4.63,24l.09,1.45c.69,11.89.44,24,.19,35.66-.17,8.18-.34,16.63-.19,24.93C741.41,1028.31,741.41,1039.16,741.22,1050Z" transform="translate(-265.2 -469.51)"/><path class="cls-1" d="M976.51,1048.07c.25-13.74.14-24.88,0-32.19-.36-20.17,1.17-40.38,0-60.52-.59-10.26-1.59-21.07,5.17-26.93,3.9-3.37,8.76-3.71,10.87-3.83,14.92-.85,71.51-.94,148.25,0a12.77,12.77,0,0,1,7.67,2.55c3,2.39,4,5.89,4.47,8.31,3.35,16.67-3.31,55.38-.64,85.63,1,10.93,2.94,18.33-1.92,25.56-5.6,8.33-16.43,10.71-23.64,11.5-5.85,0-14.73.07-25.56,0-33.1-.21-30.22-1-40.9-.64-40.84,1.38-62,3.84-62,3.84-4.28.49-13.56,1.64-18.53-3.84C977.07,1054.54,976.57,1050.64,976.51,1048.07Z" transform="translate(-265.2 -469.51)"/><path class="cls-1" d="M992,1063.62c-4.64,0-10-.91-13.59-4.88-2.38-2.63-3.64-6.2-3.73-10.63V1048c.19-10.74.19-21.55,0-32.13-.15-8.36,0-16.85.2-25.06.24-11.62.49-23.63-.19-35.38l-.09-1.45c-.61-10.23-1.24-20.8,5.88-27,4.45-3.85,9.9-4.16,12-4.27,15.65-.89,75.29-.9,148.38,0a14.36,14.36,0,0,1,8.79,3c3.86,3.09,4.81,7.82,5.12,9.37,1.7,8.51.91,22.12,0,37.87-.9,15.4-1.93,32.86-.59,48,.16,1.84.35,3.59.54,5.25.91,8.34,1.64,14.94-2.76,21.48-4.61,6.86-13,11-25,12.3-6,0-14.94.08-25.77,0-17.91-.11-25.19-.39-30-.57-4-.15-6-.23-10.82-.07-40.27,1.36-61.62,3.8-61.83,3.83A56.76,56.76,0,0,1,992,1063.62Zm-13.67-15.55c.08,3.5,1,6.27,2.78,8.22,4.28,4.72,12.76,3.73,16.83,3.26.35,0,21.82-2.5,62.27-3.86,5-.16,7-.09,11.08.07,4.8.18,12,.46,29.89.57,10.82.06,19.7,0,25.54,0,10.65-1.17,18.16-4.78,22.14-10.7,3.66-5.44,3-11.15,2.16-19.05-.18-1.69-.38-3.46-.54-5.33-1.36-15.36-.33-33,.58-48.5s1.7-28.88.08-36.93c-.42-2.14-1.29-5.22-3.82-7.25a10.75,10.75,0,0,0-6.58-2.15c-73-.89-132.53-.89-148.1,0-1.71.1-6.27.36-9.77,3.4-5.77,5-5.19,14.65-4.63,24l.08,1.46c.7,11.89.44,24,.2,35.67-.17,8.17-.34,16.63-.19,24.92C978.53,1026.46,978.53,1037.29,978.34,1048.07Z" transform="translate(-265.2 -469.51)"/><path class="cls-1" d="M1207.85,1047.43c.24-13.74.13-24.88,0-32.19-.37-20.17,1.17-40.38,0-60.52-.6-10.26-1.6-21.07,5.17-26.93,3.89-3.37,8.76-3.72,10.86-3.83,14.93-.86,71.51-.94,148.25,0a12.74,12.74,0,0,1,7.67,2.55c3,2.39,4,5.89,4.47,8.31,3.35,16.67-3.31,55.38-.63,85.63,1,10.93,2.93,18.33-1.92,25.56-5.6,8.33-16.44,10.71-23.64,11.5-5.85,0-14.74.07-25.57,0-33.1-.21-30.22-1-40.89-.64-40.85,1.38-62,3.84-62,3.84-4.27.49-13.56,1.64-18.53-3.84C1208.41,1053.9,1207.9,1050,1207.85,1047.43Z" transform="translate(-265.2 -469.51)"/><path class="cls-1" d="M1223.35,1063c-4.64,0-10-.92-13.6-4.88-2.38-2.63-3.63-6.2-3.72-10.63v-.07c.18-10.78.18-21.59,0-32.13-.16-8.36,0-16.85.19-25.06.24-11.62.49-23.63-.19-35.38l-.09-1.44c-.61-10.23-1.24-20.81,5.88-27,4.45-3.84,9.9-4.16,12-4.27,15.65-.89,75.28-.89,148.38,0a14.33,14.33,0,0,1,8.78,3c3.87,3.09,4.81,7.82,5.12,9.37,1.71,8.51.91,22.11,0,37.87-.91,15.4-1.93,32.86-.6,48,.17,1.85.36,3.59.54,5.25.92,8.34,1.64,14.94-2.76,21.48-4.6,6.86-13,11-25,12.3-6,0-14.94.08-25.77,0-17.9-.11-25.18-.39-30-.57-4-.15-6-.23-10.82-.07-40.28,1.36-61.63,3.8-61.84,3.83A56.57,56.57,0,0,1,1223.35,1063Zm-13.68-15.55c.08,3.5,1,6.27,2.78,8.22,4.29,4.72,12.76,3.74,16.83,3.26.35,0,21.83-2.5,62.28-3.86,5-.16,7-.09,11.08.07,4.79.18,12,.46,29.89.57,10.82.06,19.69,0,25.53,0,10.66-1.17,18.17-4.78,22.15-10.7,3.65-5.44,3-11.15,2.16-19-.19-1.68-.38-3.46-.55-5.33-1.35-15.37-.32-33,.59-48.49s1.69-28.89.08-36.94c-.43-2.14-1.29-5.22-3.83-7.25a10.73,10.73,0,0,0-6.58-2.15c-73-.89-132.52-.89-148.09,0-1.72.1-6.28.36-9.78,3.4-5.77,5-5.19,14.66-4.63,24l.09,1.45c.69,11.9.44,24,.2,35.67-.17,8.17-.35,16.63-.2,24.92C1209.86,1025.78,1209.86,1036.61,1209.67,1047.43Z" transform="translate(-265.2 -469.51)"/><path class="cls-1" d="M404.13,1067.46c8.74-.46,49.92-.53,132.28-.67,46.87-.08,51.33,1.3,100.17.34,28.12-.55,51.12-1.57,66.09-2.35q-.78-26.49-.9-54-.16-43,1.35-83.62c-36.24.39-65.73-.75-85.79-1.84-32-1.75-114.85-7.55-173.45,3.1a71.14,71.14,0,0,0-19.19,6c-19.09,9.24-28,25-44.55,57.6-29.76,58.49-30.13,64.66-26.73,69.52C359.83,1070.71,375.37,1068.94,404.13,1067.46Z" transform="translate(-265.2 -469.51)"/><path class="cls-1" d="M376.29,1070.48c-12.29,0-20-1.67-24.38-7.94-3.9-5.58-4.32-10.62,26.6-71.39,16.17-31.77,25.53-48.8,45.39-58.41a72.58,72.58,0,0,1,19.66-6.11c54.62-9.93,130-5.63,166.25-3.56l7.62.43c28.1,1.53,56.93,2.14,85.67,1.84l1.91,0-.07,1.91c-1,27.71-1.45,55.82-1.35,83.54.07,18,.38,36.12.91,54l0,1.78-1.78.1c-21.79,1.13-44,1.92-66.15,2.35-28.61.56-42,.32-57.6,0-10.86-.2-23.19-.44-42.6-.38-82.2.14-123.46.2-132.2.66l-7.26.39C389,1070.1,382.11,1070.48,376.29,1070.48ZM530.8,924c-29.24,0-60.36,1.46-86.59,6.23a69.45,69.45,0,0,0-18.73,5.8c-18.84,9.12-27.48,24.87-43.72,56.79-28.15,55.33-29.83,63.39-26.86,67.65,5.28,7.57,18.27,6.86,41.86,5.57l7.27-.39c8.83-.46,50.12-.53,132.38-.67,19.48,0,31.8.19,42.67.38,15.53.28,28.93.52,57.47,0,21.46-.42,43.07-1.18,64.25-2.26-.5-17.29-.78-34.86-.85-52.27-.1-27.13.33-54.63,1.28-81.78-28.17.27-56.44-.36-84-1.86l-7.63-.43C591,925.65,562,924,530.8,924Z" transform="translate(-265.2 -469.51)"/><ellipse class="cls-2" cx="9.46" cy="768.76" rx="7.64" ry="44.01"/><path class="cls-1" d="M274.66,1284.11c-9.35,0-9.46-44-9.46-45.83s.11-45.84,9.46-45.84,9.46,44,9.46,45.84S284,1284.11,274.66,1284.11Zm-.15-88c-1.85,1-5.67,16-5.67,42.22s3.82,41.16,6,42.21c1.85-1,5.67-16,5.67-42.21S276.65,1197.11,274.51,1196.06Z" transform="translate(-265.2 -469.51)"/><rect class="cls-1" x="409.23" y="904.28" width="1281.72" height="3.64" transform="translate(-269.61 -464.38) rotate(-0.28)"/><path d="M1464.24,1169.52c15.28-1.3,50.34-.53,68.59-.71,22.09-.22,51.26-.77,72,.43-17.78,1.81-135.93,3.71-140.56.28" transform="translate(-265.2 -469.51)"/><path class="cls-1" d="M1464.24,1171.34c16.5-1.37,33.23-.79,49.77-.72,18.83.09,37.66-.3,56.49-.3,11.44,0,22.88.1,34.3.75v-3.65c-6.72.67-13.51.8-20.25,1-11.12.37-22.24.61-33.37.8-23.08.38-46.19.69-69.27,0-4-.12-7.92-.26-11.86-.58-1.24-.1-2.63-.24-3.37-.36l-1.21-.25c-.71-.17,0,.09-.31-.12-1.93-1.34-3.76,1.82-1.84,3.14,1.32.92,3.51.92,5,1.08,3.2.33,6.42.47,9.64.6,10.08.39,20.18.45,30.27.47q36.21.08,72.43-1c8-.25,16.12-.35,24.11-1.15a1.83,1.83,0,0,0,0-3.65c-20.64-1.17-41.36-.77-62-.54-17.56.2-35.11,0-52.67.06-8.62,0-17.28,0-25.88.76-2.32.19-2.34,3.84,0,3.64Z" transform="translate(-265.2 -469.51)"/><path d="M1464.24,1181.9c15.28-1.3,50.34-.53,68.59-.71,22.09-.22,51.26-.77,72,.43-17.78,1.81-135.93,3.7-140.56.28" transform="translate(-265.2 -469.51)"/><path class="cls-1" d="M1464.24,1183.72c16.5-1.37,33.23-.79,49.77-.72,18.83.09,37.66-.3,56.49-.3,11.44,0,22.88.1,34.3.75v-3.65c-6.72.67-13.51.8-20.25,1-11.12.37-22.24.61-33.37.8-23.08.38-46.19.69-69.27,0-4-.12-7.92-.26-11.86-.58-1.24-.1-2.63-.24-3.37-.37-.4-.07-.81-.15-1.21-.25-.71-.16,0,.1-.31-.11-1.93-1.34-3.76,1.82-1.84,3.14,1.32.92,3.51.92,5,1.08,3.2.33,6.42.47,9.64.6,10.08.39,20.18.45,30.27.47q36.21.08,72.43-1c8-.25,16.12-.35,24.11-1.15a1.83,1.83,0,0,0,0-3.65c-20.64-1.17-41.36-.77-62-.54-17.56.2-35.11,0-52.67,0-8.62,0-17.28,0-25.88.77-2.32.19-2.34,3.84,0,3.64Z" transform="translate(-265.2 -469.51)"/><path d="M1464.24,1196.34c15.28-1.3,50.34-.53,68.59-.71,22.09-.21,51.26-.77,72,.44-17.78,1.8-135.93,3.7-140.56.27" transform="translate(-265.2 -469.51)"/><path class="cls-1" d="M1464.24,1198.16c16.5-1.37,33.23-.79,49.77-.72,18.83.09,37.66-.3,56.49-.3,11.44,0,22.88.1,34.3.75v-3.65c-6.72.68-13.51.8-20.25,1q-16.68.56-33.37.8c-23.08.39-46.19.69-69.27,0-4-.12-7.92-.26-11.86-.58-1.24-.1-2.63-.23-3.37-.36l-1.21-.25c-.71-.17,0,.09-.31-.12-1.93-1.34-3.76,1.82-1.84,3.15,1.32.91,3.51.91,5,1.07,3.2.33,6.42.47,9.64.6,10.08.39,20.18.45,30.27.47q36.21.07,72.43-1c8-.25,16.12-.35,24.11-1.15a1.83,1.83,0,0,0,0-3.65c-20.64-1.17-41.36-.77-62-.54-17.56.2-35.11,0-52.67.06-8.62,0-17.28,0-25.88.76-2.32.19-2.34,3.84,0,3.64Z" transform="translate(-265.2 -469.51)"/><path d="M1464.24,1128.58c15.28-1.3,50.34-.54,68.59-.71,22.09-.22,51.26-.77,72,.43-17.78,1.81-135.93,3.7-140.56.28" transform="translate(-265.2 -469.51)"/><path class="cls-1" d="M1464.24,1130.4c16.5-1.37,33.23-.8,49.77-.72,18.83.09,37.66-.3,56.49-.3,11.44,0,22.88.09,34.3.74v-3.64c-6.72.67-13.51.8-20.25,1-11.12.37-22.24.61-33.37.8-23.08.38-46.19.69-69.27,0-4-.11-7.92-.25-11.86-.57-1.24-.1-2.63-.24-3.37-.37-.4-.07-.81-.15-1.21-.25-.71-.16,0,.09-.31-.11-1.93-1.34-3.76,1.81-1.84,3.14,1.32.92,3.51.92,5,1.08,3.2.33,6.42.47,9.64.6,10.08.39,20.18.45,30.27.47q36.21.08,72.43-1c8-.24,16.12-.34,24.11-1.15a1.82,1.82,0,0,0,0-3.64c-20.64-1.17-41.36-.78-62-.54-17.56.2-35.11,0-52.67,0-8.62,0-17.28,0-25.88.77-2.32.19-2.34,3.84,0,3.64Z" transform="translate(-265.2 -469.51)"/><path d="M1464.24,1141c15.28-1.3,50.34-.54,68.59-.71,22.09-.22,51.26-.77,72,.43-17.78,1.81-135.93,3.7-140.56.28" transform="translate(-265.2 -469.51)"/><path class="cls-1" d="M1464.24,1142.78c16.5-1.37,33.23-.8,49.77-.72,18.83.09,37.66-.3,56.49-.31,11.44,0,22.88.1,34.3.75v-3.64c-6.72.67-13.51.8-20.25,1-11.12.37-22.24.61-33.37.8-23.08.38-46.19.69-69.27,0-4-.11-7.92-.25-11.86-.57-1.24-.1-2.63-.24-3.37-.37-.4-.07-.81-.15-1.21-.25-.71-.16,0,.09-.31-.12-1.93-1.33-3.76,1.82-1.84,3.15,1.32.92,3.51.92,5,1.08,3.2.33,6.42.47,9.64.59,10.08.4,20.18.46,30.27.48q36.21.08,72.43-1c8-.24,16.12-.35,24.11-1.15a1.82,1.82,0,0,0,0-3.64c-20.64-1.18-41.36-.78-62-.54-17.56.19-35.11,0-52.67,0-8.62,0-17.28.05-25.88.77-2.32.19-2.34,3.83,0,3.64Z" transform="translate(-265.2 -469.51)"/><path d="M1464.24,1155.4c15.28-1.3,50.34-.53,68.59-.71,22.09-.22,51.26-.77,72,.43-17.78,1.81-135.93,3.7-140.56.28" transform="translate(-265.2 -469.51)"/><path class="cls-1" d="M1464.24,1157.22c16.5-1.37,33.23-.79,49.77-.72,18.83.09,37.66-.3,56.49-.3,11.44,0,22.88.1,34.3.75v-3.65c-6.72.67-13.51.8-20.25,1-11.12.37-22.24.61-33.37.8-23.08.38-46.19.69-69.27,0-4-.12-7.92-.26-11.86-.58-1.24-.1-2.63-.24-3.37-.37-.4-.07-.81-.15-1.21-.25-.71-.16,0,.1-.31-.11-1.93-1.34-3.76,1.82-1.84,3.14,1.32.92,3.51.92,5,1.08,3.2.33,6.42.47,9.64.6,10.08.39,20.18.45,30.27.47q36.21.08,72.43-1c8-.25,16.12-.35,24.11-1.15a1.83,1.83,0,0,0,0-3.65c-20.64-1.17-41.36-.77-62-.54-17.56.2-35.11,0-52.67.06-8.62,0-17.28,0-25.88.76-2.32.19-2.34,3.84,0,3.64Z" transform="translate(-265.2 -469.51)"/><path d="M1464.24,1211.47c15.28-1.3,50.34-.53,68.59-.71,22.09-.21,51.26-.77,72,.44-17.78,1.8-135.93,3.7-140.56.27" transform="translate(-265.2 -469.51)"/><path class="cls-1" d="M1464.24,1213.29c16.5-1.37,33.23-.79,49.77-.72,18.83.09,37.66-.3,56.49-.3,11.44,0,22.88.1,34.3.75v-3.65c-6.72.68-13.51.8-20.25,1q-16.68.55-33.37.8c-23.08.39-46.19.69-69.27,0-4-.12-7.92-.26-11.86-.58-1.24-.1-2.63-.23-3.37-.36l-1.21-.25c-.71-.17,0,.09-.31-.12-1.93-1.34-3.76,1.82-1.84,3.15,1.32.91,3.51.91,5,1.07,3.2.33,6.42.47,9.64.6,10.08.39,20.18.45,30.27.47q36.21.07,72.43-1c8-.25,16.12-.35,24.11-1.15a1.83,1.83,0,0,0,0-3.65c-20.64-1.17-41.36-.77-62-.54-17.56.2-35.11,0-52.67.06-8.62,0-17.28,0-25.88.76-2.32.19-2.34,3.84,0,3.64Z" transform="translate(-265.2 -469.51)"/><path d="M1464.24,1223.45c15.28-1.3,50.34-.53,68.59-.71,22.09-.21,51.26-.77,72,.43-17.78,1.81-135.93,3.71-140.56.28" transform="translate(-265.2 -469.51)"/><path class="cls-1" d="M1464.24,1225.27c16.5-1.37,33.23-.79,49.77-.72,18.83.09,37.66-.3,56.49-.3,11.44,0,22.88.1,34.3.75v-3.65c-6.72.67-13.51.8-20.25,1-11.12.37-22.24.61-33.37.8-23.08.39-46.19.69-69.27,0-4-.12-7.92-.26-11.86-.58-1.24-.1-2.63-.24-3.37-.36l-1.21-.25c-.71-.17,0,.09-.31-.12-1.93-1.34-3.76,1.82-1.84,3.14,1.32.92,3.51.92,5,1.08,3.2.33,6.42.47,9.64.6,10.08.39,20.18.45,30.27.47q36.21.07,72.43-1c8-.25,16.12-.35,24.11-1.15a1.83,1.83,0,0,0,0-3.65c-20.64-1.17-41.36-.77-62-.54-17.56.2-35.11,0-52.67.06-8.62,0-17.28.05-25.88.76-2.32.19-2.34,3.84,0,3.64Z" transform="translate(-265.2 -469.51)"/><path d="M1465,1239.42c15.28-1.3,50.33-.53,68.59-.71,22.09-.21,51.25-.76,72,.44-17.78,1.8-135.93,3.7-140.56.27" transform="translate(-265.2 -469.51)"/><path class="cls-1" d="M1465,1241.25c16.5-1.37,33.23-.8,49.77-.72,18.83.08,37.66-.3,56.49-.31,11.43,0,22.88.1,34.3.75v-3.65c-6.72.68-13.51.8-20.25,1q-16.68.56-33.37.8c-23.08.39-46.2.69-69.27,0-4-.12-7.92-.26-11.86-.58-1.24-.1-2.63-.23-3.37-.36-.41-.07-.81-.16-1.21-.25-.71-.17,0,.09-.31-.12-1.93-1.34-3.76,1.82-1.84,3.15,1.32.91,3.51.91,5,1.07,3.2.33,6.42.47,9.63.6,10.09.39,20.19.46,30.28.47q36.21.08,72.43-1c8-.25,16.12-.35,24.11-1.15a1.83,1.83,0,0,0,0-3.65c-20.64-1.17-41.36-.77-62-.54-17.56.2-35.11,0-52.67.06-8.62,0-17.29.05-25.88.76-2.32.19-2.34,3.84,0,3.65Z" transform="translate(-265.2 -469.51)"/><path class="cls-1" d="M364.09,1376.05a252.24,252.24,0,0,1-80.74-13.24l1.16-3.46a249.75,249.75,0,0,0,125.28,8.9c.43-13.33,4.34-43.67,29-69,20.25-20.77,44.33-27.62,56.89-29.85l216.82-.63L717.34,909l3.65.05-4.87,363.33L496,1273c-11.81,2.13-35.07,8.74-54.6,28.79-24.75,25.38-27.85,56-28,68l0,1.49-1.47.27A257.77,257.77,0,0,1,364.09,1376.05Z" transform="translate(-265.2 -469.51)"/><path class="cls-1" d="M714.39,1272.43v-.34c-1.19,0-1.26-.11-1.34-.19l-1.27-1.26,1.24-1.3c.09-.1.17-.17,1.34-.25v-.31c.42,0,8.63-.06,31.48-.24,32.14-.36,96-.93,223.16-2l206.67-1.83,3.39-360.26,3.64,0-3.38,360.2q223.2-2,553.53-4.87l0,3.64-553.59,4.87v.22h-1.79c-250.19,2.15-365.43,3.14-418.61,3.51C729.73,1272.27,715,1272.41,714.39,1272.43Z" transform="translate(-265.2 -469.51)"/><path class="cls-2" d="M624.88,1154.37c10.66,0,21.2.89,32.13.92,8.34,0,20.69-2.25,28.61,0,15.49,4.39-2.27,8.53-9.41,9.25a171.51,171.51,0,0,1-25.6.83c-4.77-.24-34.72-2.57-25.73-11" transform="translate(-265.2 -469.51)"/><path class="cls-1" d="M624.88,1156.19c13.36,0,26.71,1.51,40.07.54,5.85-.43,12-1.17,17.81-.21a18.57,18.57,0,0,1,6.42,2c.74.44.56.74.81.17a5.68,5.68,0,0,1-1,.73c-3.15,1.83-7.31,2.46-10.86,3a133,133,0,0,1-18.61,1.24,120.1,120.1,0,0,1-21.59-1.56,40.07,40.07,0,0,1-10.29-2.71c-.89-.42-2.16-1-2.56-1.92,0,0-.09-.2.08-.59a4.5,4.5,0,0,1,1-1.27c1.69-1.64-.89-4.22-2.57-2.58-2.07,2-3.09,4.87-1,7.27s5.58,3.34,8.49,4.1a100,100,0,0,0,21.72,2.84,160.83,160.83,0,0,0,24.13-1,44.59,44.59,0,0,0,12.67-3.09c2.77-1.23,5.67-4.08,2.68-6.86-1.74-1.62-4.52-2.39-6.77-2.95a37.66,37.66,0,0,0-9.35-.91c-7.73,0-15.39,1.11-23.14,1-9.39-.19-18.77-.89-28.16-.87a1.82,1.82,0,0,0,0,3.64Z" transform="translate(-265.2 -469.51)"/><path class="cls-2" d="M712.84,801.71c7.74,24.14-11.88,81.72,22,78.93,27.78-2.29,15.34-58.25,14.07-84.13-9.72,1.69-20.79,3.53-31.2,2.38" transform="translate(-265.2 -469.51)"/><path class="cls-1" d="M711.08,802.19c1.74,5.55,1.94,11.49,1.94,17.27,0,6.85-.41,13.69-.65,20.53a135.9,135.9,0,0,0,.34,19.77c.59,5.32,1.68,11,4.79,15.45,6,8.72,19.9,9.87,27.84,3,9.2-7.94,9.39-23.32,9.23-34.41-.23-15.86-3.05-31.5-3.85-47.31a1.86,1.86,0,0,0-2.31-1.76c-10.14,1.77-20.41,3.37-30.72,2.32-2.33-.24-2.31,3.41,0,3.64,10.63,1.09,21.24-.63,31.69-2.44l-2.31-1.76c.67,13.17,2.8,26.22,3.55,39.39a125.15,125.15,0,0,1-.22,20.85c-.58,5.36-1.75,11-4.74,15.59-5.15,7.87-18.42,9.3-24.51,1.7-3-3.78-4.14-8.95-4.72-13.65A120.24,120.24,0,0,1,716,841.7c.22-7.26.69-14.52.71-21.78,0-6.23-.2-12.71-2.08-18.7-.7-2.23-4.22-1.27-3.51,1Z" transform="translate(-265.2 -469.51)"/><path class="cls-2" d="M1248,807.37c7.74,19.83-11.88,67.12,22,64.83,27.78-1.88,15.33-47.84,14.07-69.1-9.73,1.4-20.79,2.9-31.2,2" transform="translate(-265.2 -469.51)"/><path class="cls-1" d="M1246.21,807.86c1.69,4.42,1.93,9.23,2,13.92,0,5.61-.4,11.21-.65,16.81-.41,9.41-1.23,21.34,5,29.2,6.07,7.64,19.62,8.42,27.4,3.06,8.9-6.11,9.9-18.55,9.78-28.39-.17-13.23-3-26.19-3.86-39.36a1.85,1.85,0,0,0-2.31-1.75c-10.17,1.45-20.43,2.75-30.71,1.89-2.34-.2-2.33,3.45,0,3.64,10.61.89,21.19-.52,31.68-2l-2.3-1.76c.67,10.9,2.81,21.66,3.56,32.56a81.48,81.48,0,0,1-.24,17c-.63,4.49-1.89,9.31-4.94,12.82-3.24,3.72-7.88,5-12.68,5-4.37,0-8.86-.93-11.94-4.23-6.11-6.53-5.19-18.06-4.87-26.26.23-6,.71-12,.7-18,0-5-.26-10.34-2.07-15.1-.83-2.17-4.35-1.23-3.52,1Z" transform="translate(-265.2 -469.51)"/><path class="cls-1" d="M574.76,815.36l-3.5-1c6.07-21.49,5.73-40.09-1-55.28a92.68,92.68,0,0,0-9.92-16.41c-5-7-8.9-12.51-6.44-18.24,3.81-8.91,20.21-10.61,30.09-9,38.67,6.48,53.95,76.46,56.62,90.42l-3.58.68c-1.58-8.3-16.58-81.29-53.64-87.51-9-1.52-23.37.33-26.14,6.8-1.65,3.84,1.58,8.39,6.06,14.69a97.48,97.48,0,0,1,10.28,17C580.67,773.6,581.07,793,574.76,815.36Z" transform="translate(-265.2 -469.51)"/><path class="cls-2" d="M510,824.07c133.06-53.44,402-47.33,525.3-49.24,0,0,326.08-5.05,430.17,48.77,6.39,3.3,25.27,13.07,23.76,18.16-2.18,7.38-47-.93-90-6.9-28.34-3.93-73.49-6.94-163.79-13-124.6-8.31-221.92-7.47-248.08-7.15-5.3.06-54,1.79-151.5,5.12-106.49,3.64-160.07,5.49-176.37,6.7-102.5,7.57-170,20.48-171.94,12C486.49,834,505,826.09,510,824.07Z" transform="translate(-265.2 -469.51)"/><path class="cls-1" d="M1478.31,846.48c-10.73,0-28.72-2.42-56-6.44-7.67-1.13-15.54-2.29-23.36-3.38-28.27-3.92-73.52-6.93-163.66-12.94-112.32-7.49-203.56-7.69-247.94-7.15-3.73,0-28.7.91-78.45,2.62l-73,2.5c-103,3.53-159.71,5.47-176.3,6.69-40,3-74.53,6.71-102.26,9.73-53.2,5.79-70.1,7.31-71.58.88-1.26-5.41,12.11-12,23.55-16.61h0c116.27-46.7,338.79-48.07,471.75-48.89,19.72-.12,38.35-.24,54.2-.48,3.26,0,327.73-4.44,431,49,18.9,9.77,26,15.65,24.67,20.3C1490.12,845.18,1486.15,846.48,1478.31,846.48Zm-459.54-33.74c49.71,0,126.43,1.31,216.78,7.34s135.52,9,163.92,13c7.83,1.09,15.72,2.25,23.39,3.39,25.21,3.71,63.28,9.32,64.63,4.81.18-.61-.08-4.26-22.86-16-102.49-53-426.06-48.62-429.31-48.57-15.87.25-34.5.36-54.23.49-132.7.81-354.79,2.18-470.41,48.62h0c-12.74,5.11-21.33,10.56-21.36,12.44,2.2,3.4,32.53.11,67.64-3.71,27.75-3,62.29-6.78,102.39-9.74,16.65-1.23,73.41-3.17,176.44-6.7l73-2.5c49.78-1.72,74.76-2.58,78.54-2.62C996.06,812.82,1006.61,812.74,1018.77,812.74Z" transform="translate(-265.2 -469.51)"/><path class="cls-2" d="M693.85,751.72c7.31-24.15,4.77-40.28.88-50.72-5.58-15-15.79-23.18-12.64-30.31,3-6.73,15.82-7.88,23.79-6.11,32.11,7.12,42.25,74.07,43.33,81.65" transform="translate(-265.2 -469.51)"/><path class="cls-1" d="M695.6,752.24l-3.49-1c5.76-19,6.07-35.72.91-49.55a84.93,84.93,0,0,0-7.77-15c-4-6.46-7.08-11.56-4.82-16.66,3.54-8,17.52-9,25.85-7.15C738.63,670,749.22,733.35,751,746l-3.61.51c-1.06-7.49-11.27-73.33-41.91-80.13-7.41-1.64-19.26-.51-21.73,5.07-1.48,3.34,1.07,7.51,4.6,13.28a89.3,89.3,0,0,1,8.08,15.65C701.88,715,701.6,732.42,695.6,752.24Z" transform="translate(-265.2 -469.51)"/><path class="cls-2" d="M1410.28,673.79c-94.2-51.81-287.43-46.25-375.89-48.25,0,0-234-5.29-310,46.58-4.67,3.19-18.47,12.6-17.51,17.52,1.39,7.14,33.73-.84,64.79-6.55,20.44-3.76,52.93-6.62,117.9-12.32a1727.56,1727.56,0,0,1,178.28-6.59c3.8.07,38.74,1.79,108.63,5.14,76.36,3.65,114.77,5.5,126.45,6.69,73.39,7.45,121.52,20,123.13,11.83C1426.91,683.45,1413.83,675.74,1410.28,673.79Z" transform="translate(-265.2 -469.51)"/><path class="cls-1" d="M714.73,694.28c-3.59,0-6.19-.48-7.77-1.54a4.3,4.3,0,0,1-1.89-2.75c-.83-4.28,4.63-10.08,18.27-19.37,31.81-21.7,93.86-36.18,184.43-43.06,67.3-5.11,126.07-3.85,126.67-3.84,11.37.26,24.74.39,38.89.54,95.5,1,255.34,2.57,337.83,47.93h0c6.68,3.68,17.73,10.65,16.67,16-1.26,6.38-13.5,4.87-52-.86-19.82-2.94-44.48-6.61-73.13-9.52-11.41-1.15-47-2.88-126.35-6.68l-51.83-2.49c-34.86-1.68-54.07-2.6-56.75-2.65a1731.36,1731.36,0,0,0-178.08,6.58c-64.82,5.7-97.36,8.55-117.73,12.3-5.65,1-11.33,2.15-16.87,3.23C736.65,691.73,723,694.28,714.73,694.28Zm302.9-67c-54.86,0-229.31,3.49-292.23,46.4-16.22,11-16.92,14.79-16.75,15.67,0,.07,0,.21.34.41,4.27,2.88,25.19-1.21,45.42-5.17,5.55-1.09,11.25-2.2,16.91-3.24,20.54-3.78,53.13-6.65,118.07-12.35a1737.33,1737.33,0,0,1,178.47-6.6c2.73,0,20.82.92,56.85,2.66l51.83,2.49c79.44,3.8,115,5.53,126.55,6.7,28.73,2.91,53.44,6.59,73.3,9.54,22.12,3.29,47.21,7,47.86,3.75.34-1.71-5.55-7-14.85-12.11h0c-81.68-44.92-241-46.52-336.11-47.48-14.16-.14-27.54-.28-38.94-.53C1034,627.36,1027.9,627.23,1017.63,627.23Z" transform="translate(-265.2 -469.51)"/><path class="cls-2" d="M635.52,766.19C756.45,716.92,999,727.62,1110.21,728c0,0,294.24.94,387.25,54.79,5.71,3.3,22.58,13.07,21.13,18-2.09,7.09-42.34-1.74-81.08-8.27-25.5-4.3-66.18-8-147.54-15.44-112.26-10.25-200.07-11.18-223.67-11.33-4.79,0-48.78.76-136.76,2.25-96.12,1.62-144.49,2.45-159.21,3.32C677.74,776.75,616.65,788,615,779.81,614.15,775.4,631,768.05,635.52,766.19Z" transform="translate(-265.2 -469.51)"/><path class="cls-1" d="M1509.54,805.15c-10.11,0-27.2-2.92-51.32-7.22-6.9-1.23-14-2.49-21-3.68-25.45-4.29-66.21-8-147.41-15.42-101.2-9.24-183.48-11.06-223.52-11.32-3.44,0-26,.36-71,1.13l-65.67,1.12c-93,1.57-144.19,2.43-159.13,3.32-36.16,2.15-67.34,5.16-92.4,7.57-48.23,4.66-63.55,5.83-64.8-.48-1-5.26,11.17-11.42,21.6-15.67h0c105.7-43.07,306.48-40.42,426.46-38.85,17.8.23,34.61.45,48.92.5,3,0,295.79,1.55,388.15,55,16.93,9.8,23.29,15.62,22,20.07C1519.54,804,1515.94,805.15,1509.54,805.15ZM1066,763.86h.32c40.1.27,122.49,2.09,223.83,11.34,81.28,7.42,122.09,11.14,147.67,15.46,7,1.19,14.14,2.45,21,3.68,22.6,4,56.74,10.11,58,5.88.18-.59,0-4.12-20.29-15.88-91.53-53-383.4-54.54-386.34-54.55-14.33,0-31.15-.26-49-.5-119.68-1.57-320-4.2-425,38.58h0c-11.63,4.74-19.42,9.83-19.4,11.6,2,3.24,30.6.48,60.88-2.44,25.09-2.43,56.31-5.44,92.53-7.59,15-.89,66.27-1.75,159.29-3.33L995.18,765C1039.06,764.25,1061.68,763.86,1066,763.86Z" transform="translate(-265.2 -469.51)"/><path class="cls-1" d="M734.48,732.6,731,731.54c5.76-19,6.07-35.71.91-49.55a84.46,84.46,0,0,0-7.78-15c-4-6.47-7.07-11.57-4.82-16.67,3.55-8,17.52-9,25.85-7.14,32.35,7.17,42.94,70.54,44.74,83.17l-3.61.51c-1.06-7.49-11.27-73.33-41.92-80.13-7.4-1.65-19.26-.51-21.73,5.07-1.48,3.35,1.07,7.51,4.6,13.28a89.07,89.07,0,0,1,8.08,15.66C740.77,695.32,740.48,712.77,734.48,732.6Z" transform="translate(-265.2 -469.51)"/><path class="cls-2" d="M674.41,736.91c120.93-49.27,363.44-38.57,474.69-38.22,0,0,294.24.94,387.24,54.79,5.71,3.31,22.59,13.07,21.14,18-2.1,7.09-42.34-1.74-81.09-8.27-25.5-4.3-66.18-8-147.53-15.44-112.27-10.25-200.08-11.18-223.68-11.33-4.78,0-48.77.76-136.75,2.25-96.13,1.62-144.49,2.45-159.22,3.32-92.58,5.5-153.68,16.76-155.3,8.55C653,746.12,669.84,738.77,674.41,736.91Z" transform="translate(-265.2 -469.51)"/><path class="cls-1" d="M1548.42,775.87c-10.1,0-27.2-2.92-51.32-7.22-6.9-1.23-14-2.49-21-3.67-25.43-4.29-66.18-8-147.38-15.43-101.22-9.24-183.5-11.06-223.54-11.32-3.48,0-25.84.36-70.58,1.13l-66.13,1.12c-100,1.69-144.74,2.47-159.14,3.32C773.17,746,742,749,716.93,751.37c-48.24,4.66-63.56,5.83-64.81-.48-1-5.26,11.17-11.42,21.6-15.67h0c105.72-43.07,306.52-40.43,426.49-38.85,17.79.23,34.59.45,48.9.5,2.94,0,295.79,1.56,388.15,55,16.92,9.8,23.28,15.61,22,20.07C1558.42,774.7,1554.82,775.87,1548.42,775.87Zm-443.56-41.28h.33c40.1.26,122.5,2.08,223.83,11.33,81.31,7.42,122.11,11.15,147.67,15.46,7,1.19,14.14,2.45,21,3.68,22.59,4,56.74,10.11,58,5.88.17-.59,0-4.13-20.3-15.89-91.52-53-383.4-54.53-386.34-54.54-14.32,0-31.13-.26-48.93-.5-119.7-1.57-320-4.2-425.06,38.58h0c-11.64,4.74-19.42,9.83-19.4,11.6,2,3.25,30.59.48,60.88-2.44,25.09-2.42,56.31-5.44,92.52-7.59,14.48-.86,59.3-1.64,159.3-3.32l66.13-1.13C1078.06,735,1100.51,734.59,1104.86,734.59Z" transform="translate(-265.2 -469.51)"/><path class="cls-2" d="M654,617.74c7.31-24.14,4.77-40.28.88-50.71-5.58-15-15.79-23.19-12.64-30.32,3-6.72,15.82-7.87,23.79-6.1,32.11,7.11,42.25,74.07,43.33,81.65" transform="translate(-265.2 -469.51)"/><path class="cls-1" d="M655.7,618.27l-3.49-1.06c5.76-19,6.07-35.71.91-49.55a85.48,85.48,0,0,0-7.77-15c-4-6.47-7.08-11.57-4.82-16.66,3.54-8,17.52-9,25.84-7.15,32.36,7.17,43,70.54,44.74,83.17l-3.61.51c-1.06-7.48-11.27-73.33-41.91-80.12-7.42-1.65-19.27-.51-21.73,5.06-1.48,3.35,1.07,7.52,4.6,13.29a89.26,89.26,0,0,1,8.08,15.65C662,581,661.7,598.44,655.7,618.27Z" transform="translate(-265.2 -469.51)"/><path class="cls-2" d="M595.62,632.21C716.55,583,959.06,593.64,1070.31,594c0,0,294.24.93,387.25,54.78,5.71,3.31,22.58,13.08,21.13,18-2.09,7.09-42.34-1.74-81.08-8.28-25.5-4.3-66.18-8-147.54-15.44-112.26-10.25-200.07-11.17-223.68-11.33-4.78,0-48.77.77-136.75,2.25-96.12,1.62-144.49,2.45-159.21,3.33-92.59,5.49-153.68,16.76-155.31,8.55C574.25,641.42,591.06,634.07,595.62,632.21Z" transform="translate(-265.2 -469.51)"/><path class="cls-1" d="M1469.64,671.17c-10.11,0-27.2-2.91-51.31-7.21-6.9-1.23-14-2.49-21-3.68-25.44-4.29-66.19-8-147.4-15.42-101.2-9.24-183.48-11.06-223.52-11.33-3.42,0-26,.37-71.07,1.14l-65.64,1.11c-99.94,1.69-144.74,2.47-159.13,3.32-36.16,2.15-67.34,5.16-92.4,7.58-48.24,4.66-63.55,5.83-64.81-.49-1-5.25,11.18-11.42,21.61-15.67h0c105.71-43.06,306.51-40.42,426.48-38.85,17.79.24,34.6.46,48.9.5,3,0,295.79,1.56,388.15,55,16.93,9.8,23.29,15.61,22,20.06C1479.63,670,1476,671.17,1469.64,671.17Zm-443.55-41.28h.32c40.09.26,122.49,2.08,223.83,11.34,81.29,7.42,122.09,11.14,147.67,15.45,7,1.19,14.15,2.46,21,3.69,22.59,4,56.73,10.1,58,5.87.18-.58,0-4.11-20.27-15.87-91.55-53-383.42-54.54-386.36-54.55-14.32-.05-31.14-.27-48.93-.5-119.71-1.58-320-4.21-425.07,38.58h0c-11.63,4.74-19.42,9.82-19.4,11.6,2,3.24,30.6.48,60.88-2.45,25.09-2.42,56.31-5.43,92.53-7.58,14.47-.86,59.29-1.64,159.29-3.33L955.25,631C999.15,630.27,1021.77,629.89,1026.09,629.89Z" transform="translate(-265.2 -469.51)"/><path class="cls-1" d="M1513.08,605.88c-5.25-20-4.89-37.48,1.07-51.88a90.05,90.05,0,0,1,8.63-15.34c3.73-5.64,6.43-9.71,5.07-13.11-2.25-5.67-14-7.22-21.46-5.86-30.8,5.66-43.4,71.09-44.74,78.53l-3.58-.65c2.25-12.55,15.14-75.49,47.66-81.47,8.38-1.53,22.28,0,25.51,8.1,2.06,5.17-1.24,10.16-5.42,16.47a85.5,85.5,0,0,0-8.3,14.73c-5.65,13.64-6,30.31-.92,49.55Z" transform="translate(-265.2 -469.51)"/><path class="cls-2" d="M714.64,601.48c120.93-49.27,363.44-38.57,474.69-38.22,0,0,294.24.94,387.24,54.79,5.71,3.31,22.59,13.08,21.14,18-2.1,7.09-42.34-1.74-81.09-8.28-25.5-4.3-66.18-8-147.53-15.44C1256.82,602.06,1169,601.13,1145.41,601c-4.78,0-48.77.77-136.75,2.25-96.13,1.62-144.49,2.45-159.22,3.32-92.58,5.5-153.68,16.77-155.3,8.56C693.27,610.69,710.07,603.34,714.64,601.48Z" transform="translate(-265.2 -469.51)"/><path class="cls-1" d="M1588.66,640.44c-10.11,0-27.19-2.91-51.3-7.21-6.91-1.23-14-2.49-21-3.68-25.43-4.29-66.18-8-147.38-15.42-101.22-9.25-183.5-11.06-223.54-11.33-3.33,0-25.83.37-70.56,1.13l-66.15,1.12c-100,1.69-144.74,2.47-159.14,3.32-36.16,2.15-67.34,5.16-92.4,7.58-48.24,4.65-63.55,5.83-64.8-.49-1-5.25,11.17-11.42,21.6-15.67h0c105.71-43.06,306.53-40.43,426.49-38.85,17.79.24,34.59.46,48.89.5,3,0,295.8,1.56,388.16,55,16.92,9.8,23.28,15.61,22,20.07C1598.65,639.27,1595.05,640.44,1588.66,640.44Zm-443.57-41.28h.33c40.1.26,122.5,2.08,223.83,11.33,81.31,7.43,122.11,11.15,147.68,15.46,7,1.19,14.15,2.46,21.07,3.69,22.58,4,56.71,10.11,58,5.87.17-.59,0-4.12-20.3-15.88-91.53-53-383.4-54.53-386.34-54.54-14.32-.05-31.13-.27-48.93-.5-119.7-1.57-320-4.21-425.06,38.58h0c-11.64,4.74-19.42,9.82-19.4,11.6,2,3.24,30.59.48,60.87-2.45,25.09-2.42,56.31-5.44,92.53-7.58,14.48-.86,59.3-1.64,159.3-3.33l66.15-1.13C1118.29,599.54,1140.74,599.16,1145.09,599.16Z" transform="translate(-265.2 -469.51)"/><path class="cls-2" d="M1372.62,689.68c-5.57-10.45-3.39-17.19-.2-21.47,4.58-6.15,12.77-9.3,10.34-12.41-2.3-2.94-12.49-3.85-18.84-3.36-25.58,2-34.3,30-35.23,33.13" transform="translate(-265.2 -469.51)"/><path class="cls-1" d="M1371,690.54c-4.84-9.09-4.86-17,0-23.42a38,38,0,0,1,6.76-6.56c1.43-1.16,3.59-2.91,3.66-3.59-1.54-2-10.06-3.26-17.32-2.71-24.16,1.86-32.72,28.76-33.62,31.82l-3.49-1c1-3.3,10.23-32.37,36.83-34.42,5.31-.4,17.28,0,20.41,4,2.55,3.26-1,6.16-4.17,8.72a35.12,35.12,0,0,0-6.14,5.9c-4,5.3-3.84,11.69.35,19.53Z" transform="translate(-265.2 -469.51)"/><path class="cls-2" d="M1357,559.29c-4.86-24.29-2.21-40.37,1.3-50.72,5-14.85,13.47-22.84,11.24-30-2.11-6.79-12.27-8.2-18.68-6.61-25.8,6.44-36.5,73.16-37.65,80.71" transform="translate(-265.2 -469.51)"/><path class="cls-1" d="M1355.19,559.64c-4-19.86-3.51-37.24,1.36-51.65a100.31,100.31,0,0,1,7-15.44c3.08-5.77,5.3-9.94,4.21-13.48-1.76-5.67-10.87-6.78-16.5-5.38-24.42,6.1-35.15,71.75-36.29,79.22l-3.61-.55c1.93-12.58,12.87-75.68,39-82.2,7.18-1.79,18.41-.06,20.86,7.83,1.54,5-1.11,10-4.47,16.27a96.9,96.9,0,0,0-6.79,14.89c-4.66,13.81-5.08,30.55-1.23,49.78Z" transform="translate(-265.2 -469.51)"/><path class="cls-2" d="M1418.42,705.38c-94.2-51.81-287.42-46.25-375.88-48.25,0,0-234-5.29-310,46.58-4.67,3.19-18.46,12.6-17.51,17.52,1.39,7.13,33.73-.84,64.79-6.55,20.45-3.76,52.93-6.62,117.91-12.32A1727.32,1727.32,0,0,1,1076,695.77c3.8.07,38.74,1.79,108.63,5.14,76.36,3.65,114.78,5.5,126.45,6.69,73.39,7.45,121.52,20,123.13,11.83C1435.05,715,1422,707.33,1418.42,705.38Z" transform="translate(-265.2 -469.51)"/><path class="cls-1" d="M722.87,725.87c-3.58,0-6.18-.48-7.77-1.54a4.25,4.25,0,0,1-1.88-2.75c-.84-4.28,4.63-10.07,18.26-19.37,31.82-21.7,93.87-36.18,184.43-43.06,67.3-5.11,126.08-3.85,126.67-3.84,11.37.26,24.74.39,38.89.54,95.51,1,255.35,2.57,337.83,47.93h0c6.68,3.67,17.73,10.63,16.67,16-1.26,6.38-13.51,4.88-52-.85-19.82-2.94-44.48-6.61-73.13-9.52-11.84-1.2-52.51-3.15-126.34-6.68l-52.69-2.53c-34.33-1.65-53.24-2.56-55.9-2.61a1730.57,1730.57,0,0,0-178.07,6.58c-64.83,5.7-97.37,8.55-117.74,12.3-5.64,1-11.32,2.15-16.85,3.23C744.8,723.32,731.19,725.87,722.87,725.87Zm302.89-67c-54.87,0-229.3,3.49-292.22,46.4-15.77,10.76-17,14.54-16.75,15.67,0,.07,0,.21.35.41,4.28,2.88,25.2-1.22,45.43-5.18,5.54-1.08,11.24-2.2,16.89-3.24,20.54-3.77,53.14-6.64,118.08-12.34a1736.54,1736.54,0,0,1,178.46-6.6c2.72,0,20.53.91,56,2.62l52.68,2.53c73.9,3.53,114.6,5.48,126.55,6.7,28.72,2.91,53.43,6.59,73.28,9.54,22.13,3.29,47.22,7,47.88,3.75.33-1.72-5.55-7-14.86-12.11h0c-81.67-44.92-240.94-46.52-336.1-47.48-14.17-.14-27.55-.28-38.94-.53C1042.13,659,1036,658.82,1025.76,658.82Z" transform="translate(-265.2 -469.51)"/><path class="cls-2" d="M1402.78,575c-94.2-51.81-287.42-46.25-375.88-48.25,0,0-234-5.29-310,46.58-4.67,3.18-18.47,12.59-17.51,17.52,1.38,7.13,33.73-.84,64.79-6.55,20.44-3.77,52.93-6.62,117.9-12.32a1731.65,1731.65,0,0,1,178.27-6.6c3.8.07,38.75,1.8,108.63,5.15,76.36,3.65,114.78,5.5,126.45,6.69,73.39,7.45,121.52,20,123.14,11.83C1419.41,584.65,1406.34,576.94,1402.78,575Z" transform="translate(-265.2 -469.51)"/><path class="cls-1" d="M707.24,595.47c-3.59,0-6.19-.47-7.78-1.54a4.24,4.24,0,0,1-1.88-2.74c-.83-4.28,4.63-10.07,18.27-19.38,31.81-21.69,93.86-36.17,184.42-43,67.31-5.11,126.08-3.85,126.67-3.84,11.37.26,24.73.39,38.88.53,95.5,1,255.36,2.57,337.84,47.94h0c6.68,3.67,17.73,10.64,16.67,16-1.26,6.38-13.49,4.88-52-.85-19.82-2.94-44.49-6.61-73.13-9.52-11.84-1.2-52.52-3.15-126.35-6.68l-53.08-2.55c-34.08-1.64-52.85-2.55-55.5-2.59a1728.26,1728.26,0,0,0-178.08,6.58c-64.83,5.69-97.37,8.55-117.74,12.3-5.63,1-11.31,2.15-16.84,3.23C729.16,592.92,715.55,595.47,707.24,595.47Zm302.89-67c-54.88,0-229.31,3.49-292.23,46.4-16.21,11-16.92,14.78-16.74,15.66,0,.07,0,.22.34.42,4.27,2.87,25.2-1.22,45.44-5.18,5.54-1.08,11.23-2.2,16.89-3.24,20.53-3.77,53.13-6.64,118.07-12.34a1737.47,1737.47,0,0,1,178.46-6.6c2.71.05,20.39.9,55.62,2.6l53.07,2.55c73.9,3.53,114.61,5.48,126.55,6.69,28.73,2.92,53.44,6.6,73.3,9.55,22.13,3.29,47.2,7,47.86,3.75.34-1.72-5.55-7-14.85-12.11h0c-81.68-44.92-241-46.52-336.13-47.48-14.16-.14-27.53-.28-38.92-.54C1026.49,528.56,1020.4,528.43,1010.13,528.43Z" transform="translate(-265.2 -469.51)"/><path class="cls-1" d="M815.14,535l-3.63-.26c1-13.72-1.7-25.15-7.94-34a67,67,0,0,0-8.45-9.4c-4.23-4.1-7.57-7.34-6.7-11.47,1.33-6.29,12-8.82,18.7-8.53,25.79,1.07,45,43.8,48.61,52.35l-3.36,1.41c-2.11-5-21.32-49.12-45.4-50.12-6.27-.25-14.24,2.14-15,5.64-.46,2.16,2.24,4.78,5.66,8.1a70.26,70.26,0,0,1,8.89,9.91C813.29,508.23,816.18,520.46,815.14,535Z" transform="translate(-265.2 -469.51)"/><path class="cls-2" d="M779.34,539.55c74.59-51.81,227.57-46.25,297.61-48.25,0,0,185.24-5.29,245.46,46.58,3.7,3.18,14.62,12.59,13.86,17.52-1.09,7.13-26.7-.84-51.29-6.56-16.19-3.76-41.91-6.61-93.35-12.31a1087.06,1087.06,0,0,0-141.15-6.6c-3,.07-30.68,1.8-86,5.15-60.46,3.65-90.87,5.5-100.12,6.69-58.1,7.45-96.21,20-97.49,11.83C766.18,549.21,776.53,541.5,779.34,539.55Z" transform="translate(-265.2 -469.51)"/><path class="cls-1" d="M1330.06,560c-6.68,0-17.44-2.55-32.16-6.19-4.37-1.08-8.87-2.19-13.34-3.23-16.08-3.74-41.83-6.59-93.13-12.28a1083.33,1083.33,0,0,0-140.91-6.58c-2.1,0-17.2,1-44.61,2.63l-41.33,2.51c-58.44,3.53-90.63,5.47-100,6.67-22.66,2.91-42.18,6.58-57.86,9.52-24.63,4.63-35.7,6.55-39.91,3.58a4.16,4.16,0,0,1-1.76-2.79c-.84-5.41,9-12.87,13.24-15.83,65.45-45.46,192.13-47.07,267.82-48,11.2-.14,21.78-.27,30.78-.53a915.68,915.68,0,0,1,100.37,3.85c71.83,6.88,121.06,21.41,146.33,43.17,7.16,6.17,15.28,13.92,14.47,19.18a4.39,4.39,0,0,1-2,3.05C1334.74,559.63,1332.72,560,1330.06,560Zm-259.65-32.15a1115.55,1115.55,0,0,1,121.42,6.83c51.44,5.7,77.26,8.56,93.56,12.35,4.48,1,9,2.16,13.39,3.24,14.83,3.67,31.63,7.82,35.3,5.38a.75.75,0,0,0,.39-.56c.23-1.47-1.19-5.49-13.25-15.87-59-50.81-242.37-46.18-244.22-46.14-9,.26-19.62.4-30.84.54-75.27,1-201.25,2.56-265.78,47.38h0c-6.78,4.71-12,10.22-11.72,12.28,0,.12.05.22.27.38,3.11,2.2,18.13-.62,37.12-4.19,15.73-3,35.31-6.63,58.07-9.55,9.11-1.17,37.31-2.9,100.24-6.7l41.32-2.51c28.36-1.72,42.58-2.59,44.76-2.64C1055.9,528,1062.61,527.89,1070.41,527.89Z" transform="translate(-265.2 -469.51)"/><path class="cls-1" d="M734.63,846.06a409,409,0,0,1,34.46-42.66c11.78-12.73,24.65-24.2,37.71-35.58,6-5.23,11.61-10.91,17.34-16.44q12.17-11.73,24.36-23.45,24.22-23.22,48.79-46.09c16.16-15,32.27-30.19,49.45-44,16.53-13.27,34.12-25.19,52-36.53,17.47-11.07,35-22.66,54.19-30.59,18.69-7.73,38.28-12.93,57.52-19,18.92-6,37.08-13.34,54.32-23.25,5.11-2.94,10.15-6,15-9.29,6.12-4.1,12.62-7.68,18.84-11.64q5.43-3.45,10.78-7c2.91-1.93.18-6.67-2.76-4.72-11.71,7.79-23.73,15.1-35.65,22.54a247.32,247.32,0,0,1-50.12,24.17c-19.36,6.72-39.26,11.77-58.53,18.76a221.48,221.48,0,0,0-27.5,11.89c-9.31,4.88-18.2,10.61-27.14,16.12-18,11.1-35.78,22.63-52.72,35.31-17.36,13-33.37,27.53-49.36,42.13-33.32,30.44-65.52,62-98.18,93.16-4,3.82-8.31,7.33-12.47,11-6.79,5.93-13.44,12-19.83,18.38a398.68,398.68,0,0,0-39.13,45.57q-3.14,4.23-6.16,8.54c-2,2.89,2.71,5.62,4.72,2.76Z" transform="translate(-265.2 -469.51)"/><path class="cls-1" d="M1269.56,837.36c-3.24-7.22-9-12.69-13.33-19.21-4.69-7.08-7.23-15.54-9.73-23.59-4.89-15.73-10.18-31-18.22-45.49-7-12.58-15.62-24.16-24.86-35.19-10.06-12-20.47-23.88-31.35-35.13-23.6-24.41-51.33-44.4-74.73-69A185,185,0,0,1,1081,590.27c-4.81-6.71-9.2-13.71-13.51-20.75-8.5-13.84-16.87-27.86-27.62-40.12-9.88-11.28-20.77-21.61-34.51-28q-6.81-3.15-13.81-5.87c-4.59-1.78-9.38-3.7-14.3-4.29-1.45-.18-3.26-.26-4.5.67-2.77,2.09,0,6.84,2.76,4.72.49-.37-.27,0,.11-.06-.61.07.07,0,.31,0a14.63,14.63,0,0,1,2.35.34,57.93,57.93,0,0,1,6.59,1.95c5,1.73,9.94,3.76,14.79,5.91a88.17,88.17,0,0,1,15.73,8.73,113.87,113.87,0,0,1,16.43,15.15c22.15,23.72,34.4,54.49,55.93,78.71,22.14,24.91,49.18,44.71,73,67.84,11.43,11.09,21.94,23.15,32.41,35.15,9.32,10.67,18.25,21.69,25.76,33.72a182.4,182.4,0,0,1,19.19,42c2.6,8.29,4.91,16.68,8.24,24.71a58.5,58.5,0,0,0,5.51,10.7c2.13,3.13,4.58,6,6.91,9a47.11,47.11,0,0,1,6,9.58c1.44,3.2,6.15.43,4.72-2.76Z" transform="translate(-265.2 -469.51)"/><path class="cls-1" d="M730.58,841.31c-3.73.17-.81,8.07,2.88,5.85,3.53-2.11,0-6.55-3.16-6.13" transform="translate(-265.2 -469.51)"/><path class="cls-1" d="M730.58,839.49a3.54,3.54,0,0,0-2.58,1.13,4.11,4.11,0,0,0-1,2.62,6.77,6.77,0,0,0,1.78,4.56,4.88,4.88,0,0,0,2.19,1.41,4.26,4.26,0,0,0,3-.29,4.8,4.8,0,0,0,2.5-2.7,4.6,4.6,0,0,0-.29-3.47,6.35,6.35,0,0,0-2.4-2.63,5.53,5.53,0,0,0-3.53-.91,2,2,0,0,0-1.28.53,1.81,1.81,0,0,0,0,2.58,1.74,1.74,0,0,0,1.28.53,3.7,3.7,0,0,1,.88,0l-.49-.06a4.14,4.14,0,0,1,1,.27l-.43-.18a4.69,4.69,0,0,1,.77.4l.2.14c.23.16-.37-.3-.14-.11l.31.28a4.11,4.11,0,0,1,.29.3,1.83,1.83,0,0,0,.13.16c-.4-.45-.21-.28-.12-.15a4.53,4.53,0,0,1,.42.75l-.19-.44a3.21,3.21,0,0,1,.22.79l-.06-.48a2.51,2.51,0,0,1,0,.67l.07-.48a2.7,2.7,0,0,1-.17.6l.19-.44a3,3,0,0,1-.26.46c-.15.23.35-.41.07-.1-.06.06-.12.13-.18.18s-.38.25.09-.06l-.27.19a2.64,2.64,0,0,1-.44.23l.44-.18a3,3,0,0,1-.65.19l.48-.07a2.15,2.15,0,0,1-.62,0l.49.07a2.87,2.87,0,0,1-.59-.17l.44.18a3,3,0,0,1-.62-.36c.59.4.21.17.07,0a3.31,3.31,0,0,1-.26-.27l-.12-.14c-.17-.2.33.46.13.16l-.2-.3a4.63,4.63,0,0,1-.36-.7l.19.44a5.19,5.19,0,0,1-.36-1.28l.07.49a3.62,3.62,0,0,1,0-.93l-.07.48a2.51,2.51,0,0,1,.17-.61l-.19.43c0-.08.09-.16.13-.25s.28-.23-.17.21a.81.81,0,0,0,.09-.1l.11-.09c.16-.17-.47.31-.23.17l.28-.14-.44.18a2.72,2.72,0,0,1,.49-.13l-.49.07.2,0a1.82,1.82,0,1,0,0-3.64Z" transform="translate(-265.2 -469.51)"/><path class="cls-1" d="M1267.43,836.38c-6.81,2.83-2.16,16.47,4.42,12.61,6.1-3.58.39-11.64-4.22-13l-1.55,1.11" transform="translate(-265.2 -469.51)"/><path class="cls-1" d="M1266.51,834.81c-5.71,2.44-5.16,10.91-1.34,14.75a6.16,6.16,0,0,0,7.9.82,6.79,6.79,0,0,0,3.14-4.49,8.77,8.77,0,0,0-1-5.29,13.3,13.3,0,0,0-3.59-4.43,11.63,11.63,0,0,0-2.4-1.53,3.59,3.59,0,0,0-1.88-.48,5.74,5.74,0,0,0-2.23,1.32,1.88,1.88,0,0,0-.65,2.5,1.84,1.84,0,0,0,2.49.65c.52-.36,1-.73,1.55-1.11l-1.4.18c.12,0,.23.09.35.12.3.09-.27-.14.11,0a8.52,8.52,0,0,1,.84.46c.25.15.48.31.72.48l-.08-.06a2.11,2.11,0,0,1,.23.19l.4.34a12.64,12.64,0,0,1,1.41,1.52c-.19-.24,0,0,.09.13s.17.26.26.38q.29.45.54.93l.19.4c.15.29-.07-.22.08.18s.21.63.29,1c0,.14.05.28.08.42s0-.13,0-.14a1.36,1.36,0,0,1,0,.2c0,.32,0,.63,0,1s0-.14,0-.15,0,.18-.05.26-.07.26-.11.39-.17.32,0,.07c-.1.15-.17.32-.27.48s-.25.34,0,.1c-.1.11-.19.23-.3.33s-.27.26-.4.38,0,0,0,0l-.28.19c-.26.17-.55.29-.8.45-.09.06.33-.11,0,0a3.06,3.06,0,0,1-.43.13l-.32.07c-.1,0,.43,0,.07,0h-.5c-.2,0-.1-.09,0,0s.23.06,0,0l-.2,0-.28-.08c-.35-.11,0,.06.07,0s-.31-.15-.36-.17-.33-.22-.5-.34c.26.18.18.16,0,0s-.18-.17-.26-.26-.31-.35-.47-.52.22.31,0,0c-.08-.13-.17-.25-.25-.37s-.23-.4-.33-.6-.12-.24-.18-.36l-.07-.16c-.11-.21.11.33,0,.11-.15-.52-.35-1-.47-1.53,0-.19-.12-.87-.07-.34,0-.28-.06-.56-.07-.83a8.81,8.81,0,0,1,0-.89c0-.13,0-.27,0-.4,0,.53,0,.06,0-.09a5.93,5.93,0,0,1,.21-.83c0-.12.1-.24.13-.37-.1.36-.06.15,0-.07s.26-.45.4-.67-.06.07-.09.1l.15-.17a3.5,3.5,0,0,1,.27-.28c.06-.07.41-.37.2-.19s.12-.09.19-.13a4.69,4.69,0,0,1,.86-.45,1.84,1.84,0,0,0,.65-2.5,1.87,1.87,0,0,0-2.49-.65Z" transform="translate(-265.2 -469.51)"/></svg>